<svg width="1412" height="517" viewBox="0 0 1412 517" fill="none" xmlns="http://www.w3.org/2000/svg">
<g clip-path="url(#clip0_1401_403)">
<path d="M167.167 137.584C165.097 137.584 163.03 137.717 160.987 137.979C154.513 117.255 135.369 102.477 113.5 102.477C86.0227 102.477 63.6667 125.341 63.6667 153.451C63.6667 153.906 63.6705 154.358 63.682 154.809C45.742 159.917 33 176.581 33 196.366C33 220.17 51.9175 239.536 75.1667 239.536H167.167C194.644 239.536 217 216.671 217 188.562C217 160.453 194.644 137.584 167.167 137.584ZM167.167 223.411H75.1667C60.37 223.411 48.3333 211.278 48.3333 196.366C48.3333 182.282 58.8175 170.708 72.721 169.442C74.8983 169.245 76.8917 168.08 78.2027 166.237C79.5098 164.395 80.012 162.053 79.575 159.804C79.1917 157.833 79 155.696 79 153.451C79 134.234 94.479 118.601 113.5 118.601C130.616 118.601 145.301 131.481 147.655 148.561C147.973 150.863 149.223 152.91 151.082 154.176C152.941 155.438 155.23 155.797 157.357 155.156C160.539 154.196 163.839 153.713 167.17 153.713C186.195 153.713 201.67 169.346 201.67 188.566C201.67 207.787 186.191 223.411 167.167 223.411Z" fill="#F3F3F3" fill-opacity="0.4"/>
</g>
<g clip-path="url(#clip1_1401_403)">
<path d="M318.167 278.584C316.097 278.584 314.03 278.717 311.987 278.979C305.513 258.255 286.369 243.477 264.5 243.477C237.023 243.477 214.667 266.341 214.667 294.451C214.667 294.906 214.67 295.358 214.682 295.809C196.742 300.917 184 317.581 184 337.366C184 361.17 202.917 380.536 226.167 380.536H318.167C345.644 380.536 368 357.671 368 329.562C368 301.453 345.644 278.584 318.167 278.584ZM318.167 364.411H226.167C211.37 364.411 199.333 352.278 199.333 337.366C199.333 323.282 209.818 311.708 223.721 310.442C225.898 310.245 227.892 309.08 229.203 307.237C230.51 305.395 231.012 303.053 230.575 300.804C230.192 298.833 230 296.696 230 294.451C230 275.234 245.479 259.601 264.5 259.601C281.616 259.601 296.301 272.481 298.655 289.561C298.973 291.863 300.223 293.91 302.082 295.176C303.941 296.438 306.23 296.797 308.357 296.156C311.539 295.196 314.839 294.713 318.17 294.713C337.195 294.713 352.67 310.346 352.67 329.566C352.67 348.787 337.191 364.411 318.167 364.411Z" fill="#F3F3F3" fill-opacity="0.6"/>
</g>
<g clip-path="url(#clip2_1401_403)">
<path d="M480.167 138.584C478.097 138.584 476.03 138.717 473.987 138.979C467.513 118.255 448.369 103.477 426.5 103.477C399.023 103.477 376.667 126.341 376.667 154.451C376.667 154.906 376.67 155.358 376.682 155.809C358.742 160.917 346 177.581 346 197.366C346 221.17 364.917 240.536 388.167 240.536H480.167C507.644 240.536 530 217.671 530 189.562C530 161.453 507.644 138.584 480.167 138.584ZM480.167 224.411H388.167C373.37 224.411 361.333 212.278 361.333 197.366C361.333 183.282 371.818 171.708 385.721 170.442C387.898 170.245 389.892 169.08 391.203 167.237C392.51 165.395 393.012 163.053 392.575 160.804C392.192 158.833 392 156.696 392 154.451C392 135.234 407.479 119.601 426.5 119.601C443.616 119.601 458.301 132.481 460.655 149.561C460.973 151.863 462.223 153.91 464.082 155.176C465.941 156.438 468.23 156.797 470.357 156.156C473.539 155.196 476.839 154.713 480.17 154.713C499.195 154.713 514.67 170.346 514.67 189.566C514.67 208.787 499.191 224.411 480.167 224.411Z" fill="#F3F3F3" fill-opacity="0.6"/>
</g>
<g clip-path="url(#clip3_1401_403)">
<path d="M134.167 415.584C132.097 415.584 130.03 415.717 127.987 415.979C121.513 395.255 102.369 380.477 80.5 380.477C53.0227 380.477 30.6667 403.341 30.6667 431.451C30.6667 431.906 30.6705 432.358 30.682 432.809C12.742 437.917 0 454.581 0 474.366C0 498.17 18.9175 517.536 42.1667 517.536H134.167C161.644 517.536 184 494.671 184 466.562C184 438.453 161.644 415.584 134.167 415.584ZM134.167 501.411H42.1667C27.37 501.411 15.3333 489.278 15.3333 474.366C15.3333 460.282 25.8175 448.708 39.721 447.442C41.8983 447.245 43.8917 446.08 45.2027 444.237C46.5098 442.395 47.012 440.053 46.575 437.804C46.1917 435.833 46 433.696 46 431.451C46 412.234 61.479 396.601 80.5 396.601C97.6158 396.601 112.301 409.481 114.655 426.561C114.973 428.863 116.223 430.91 118.082 432.176C119.941 433.438 122.23 433.797 124.357 433.156C127.539 432.196 130.839 431.713 134.17 431.713C153.195 431.713 168.67 447.346 168.67 466.566C168.67 485.787 153.191 501.411 134.167 501.411Z" fill="#F3F3F3" fill-opacity="0.6"/>
</g>
<g clip-path="url(#clip4_1401_403)">
<path d="M790.167 34.584C788.097 34.584 786.03 34.717 783.987 34.979C777.513 14.2548 758.369 -0.523438 736.5 -0.523438C709.023 -0.523438 686.667 22.3413 686.667 50.4506C686.667 50.9062 686.67 51.3577 686.682 51.8091C668.742 56.9166 656 73.5815 656 93.3664C656 117.17 674.917 136.536 698.167 136.536H790.167C817.644 136.536 840 113.671 840 85.5621C840 57.4528 817.644 34.584 790.167 34.584ZM790.167 120.411H698.167C683.37 120.411 671.333 108.278 671.333 93.3664C671.333 79.2815 681.818 67.7081 695.721 66.4423C697.898 66.2447 699.892 65.0797 701.203 63.2375C702.51 61.3952 703.012 59.0531 702.575 56.8038C702.192 54.8325 702 52.696 702 50.4506C702 31.2341 717.479 15.6012 736.5 15.6012C753.616 15.6012 768.301 28.4808 770.655 45.5608C770.973 47.8626 772.223 49.9105 774.082 51.1763C775.941 52.438 778.23 52.7968 780.357 52.1558C783.539 51.1964 786.839 50.7127 790.17 50.7127C809.195 50.7127 824.67 66.3455 824.67 85.5661C824.67 104.787 809.191 120.411 790.167 120.411Z" fill="#F3F3F3" fill-opacity="0.6"/>
</g>
<g clip-path="url(#clip5_1401_403)">
<path d="M1091.17 152.584C1089.1 152.584 1087.03 152.717 1084.99 152.979C1078.51 132.255 1059.37 117.477 1037.5 117.477C1010.02 117.477 987.667 140.341 987.667 168.451C987.667 168.906 987.67 169.358 987.682 169.809C969.742 174.917 957 191.581 957 211.366C957 235.17 975.917 254.536 999.167 254.536H1091.17C1118.64 254.536 1141 231.671 1141 203.562C1141 175.453 1118.64 152.584 1091.17 152.584ZM1091.17 238.411H999.167C984.37 238.411 972.333 226.278 972.333 211.366C972.333 197.282 982.818 185.708 996.721 184.442C998.898 184.245 1000.89 183.08 1002.2 181.237C1003.51 179.395 1004.01 177.053 1003.57 174.804C1003.19 172.833 1003 170.696 1003 168.451C1003 149.234 1018.48 133.601 1037.5 133.601C1054.62 133.601 1069.3 146.481 1071.65 163.561C1071.97 165.863 1073.22 167.91 1075.08 169.176C1076.94 170.438 1079.23 170.797 1081.36 170.156C1084.54 169.196 1087.84 168.713 1091.17 168.713C1110.2 168.713 1125.67 184.346 1125.67 203.566C1125.67 222.787 1110.19 238.411 1091.17 238.411Z" fill="#F3F3F3" fill-opacity="0.5"/>
</g>
<g clip-path="url(#clip6_1401_403)">
<path d="M933.333 290.381C931.893 290.381 930.456 290.467 929.035 290.636C924.531 277.226 911.213 267.664 896 267.664C876.885 267.664 861.333 282.459 861.333 300.647C861.333 300.942 861.336 301.234 861.344 301.526C848.864 304.831 840 315.614 840 328.416C840 343.819 853.16 356.35 869.333 356.35H933.333C952.448 356.35 968 341.555 968 323.366C968 305.178 952.448 290.381 933.333 290.381ZM933.333 345.916H869.333C859.04 345.916 850.667 338.065 850.667 328.416C850.667 319.303 857.96 311.814 867.632 310.995C869.147 310.867 870.533 310.113 871.445 308.921C872.355 307.729 872.704 306.214 872.4 304.758C872.133 303.483 872 302.1 872 300.647C872 288.213 882.768 278.098 896 278.098C907.907 278.098 918.123 286.432 919.76 297.483C919.981 298.973 920.851 300.298 922.144 301.117C923.437 301.933 925.029 302.165 926.509 301.751C928.723 301.13 931.019 300.817 933.336 300.817C946.571 300.817 957.336 310.932 957.336 323.369C957.336 335.806 946.568 345.916 933.333 345.916Z" fill="#F3F3F3" fill-opacity="0.5"/>
</g>
<g clip-path="url(#clip7_1401_403)">
<path d="M736.333 202.381C734.893 202.381 733.456 202.467 732.035 202.636C727.531 189.226 714.213 179.664 699 179.664C679.885 179.664 664.333 194.459 664.333 212.647C664.333 212.942 664.336 213.234 664.344 213.526C651.864 216.831 643 227.614 643 240.416C643 255.819 656.16 268.35 672.333 268.35H736.333C755.448 268.35 771 253.555 771 235.366C771 217.178 755.448 202.381 736.333 202.381ZM736.333 257.916H672.333C662.04 257.916 653.667 250.065 653.667 240.416C653.667 231.303 660.96 223.814 670.632 222.995C672.147 222.867 673.533 222.113 674.445 220.921C675.355 219.729 675.704 218.214 675.4 216.758C675.133 215.483 675 214.1 675 212.647C675 200.213 685.768 190.098 699 190.098C710.907 190.098 721.123 198.432 722.76 209.483C722.981 210.973 723.851 212.298 725.144 213.117C726.437 213.933 728.029 214.165 729.509 213.751C731.723 213.13 734.019 212.817 736.336 212.817C749.571 212.817 760.336 222.932 760.336 235.369C760.336 247.806 749.568 257.916 736.333 257.916Z" fill="#F3F3F3" fill-opacity="0.5"/>
</g>
<g clip-path="url(#clip8_1401_403)">
<path d="M832.333 413.381C830.893 413.381 829.456 413.467 828.035 413.636C823.531 400.226 810.213 390.664 795 390.664C775.885 390.664 760.333 405.459 760.333 423.647C760.333 423.942 760.336 424.234 760.344 424.526C747.864 427.831 739 438.614 739 451.416C739 466.819 752.16 479.35 768.333 479.35H832.333C851.448 479.35 867 464.555 867 446.366C867 428.178 851.448 413.381 832.333 413.381ZM832.333 468.916H768.333C758.04 468.916 749.667 461.065 749.667 451.416C749.667 442.303 756.96 434.814 766.632 433.995C768.147 433.867 769.533 433.113 770.445 431.921C771.355 430.729 771.704 429.214 771.4 427.758C771.133 426.483 771 425.1 771 423.647C771 411.213 781.768 401.098 795 401.098C806.907 401.098 817.123 409.432 818.76 420.483C818.981 421.973 819.851 423.298 821.144 424.117C822.437 424.933 824.029 425.165 825.509 424.751C827.723 424.13 830.019 423.817 832.336 423.817C845.571 423.817 856.336 433.932 856.336 446.369C856.336 458.806 845.568 468.916 832.333 468.916Z" fill="#F3F3F3" fill-opacity="0.5"/>
</g>
<g clip-path="url(#clip9_1401_403)">
<path d="M1377.33 345.381C1375.89 345.381 1374.46 345.467 1373.03 345.636C1368.53 332.226 1355.21 322.664 1340 322.664C1320.89 322.664 1305.33 337.459 1305.33 355.647C1305.33 355.942 1305.34 356.234 1305.34 356.526C1292.86 359.831 1284 370.614 1284 383.416C1284 398.819 1297.16 411.35 1313.33 411.35H1377.33C1396.45 411.35 1412 396.555 1412 378.366C1412 360.178 1396.45 345.381 1377.33 345.381ZM1377.33 400.916H1313.33C1303.04 400.916 1294.67 393.065 1294.67 383.416C1294.67 374.303 1301.96 366.814 1311.63 365.995C1313.15 365.867 1314.53 365.113 1315.45 363.921C1316.35 362.729 1316.7 361.214 1316.4 359.758C1316.13 358.483 1316 357.1 1316 355.647C1316 343.213 1326.77 333.098 1340 333.098C1351.91 333.098 1362.12 341.432 1363.76 352.483C1363.98 353.973 1364.85 355.298 1366.14 356.117C1367.44 356.933 1369.03 357.165 1370.51 356.751C1372.72 356.13 1375.02 355.817 1377.34 355.817C1390.57 355.817 1401.34 365.932 1401.34 378.369C1401.34 390.806 1390.57 400.916 1377.33 400.916Z" fill="#F3F3F3" fill-opacity="0.5"/>
</g>
<g clip-path="url(#clip10_1401_403)">
<path d="M1168.17 377.584C1166.1 377.584 1164.03 377.717 1161.99 377.979C1155.51 357.255 1136.37 342.477 1114.5 342.477C1087.02 342.477 1064.67 365.341 1064.67 393.451C1064.67 393.906 1064.67 394.358 1064.68 394.809C1046.74 399.917 1034 416.581 1034 436.366C1034 460.17 1052.92 479.536 1076.17 479.536H1168.17C1195.64 479.536 1218 456.671 1218 428.562C1218 400.453 1195.64 377.584 1168.17 377.584ZM1168.17 463.411H1076.17C1061.37 463.411 1049.33 451.278 1049.33 436.366C1049.33 422.282 1059.82 410.708 1073.72 409.442C1075.9 409.245 1077.89 408.08 1079.2 406.237C1080.51 404.395 1081.01 402.053 1080.57 399.804C1080.19 397.833 1080 395.696 1080 393.451C1080 374.234 1095.48 358.601 1114.5 358.601C1131.62 358.601 1146.3 371.481 1148.65 388.561C1148.97 390.863 1150.22 392.91 1152.08 394.176C1153.94 395.438 1156.23 395.797 1158.36 395.156C1161.54 394.196 1164.84 393.713 1168.17 393.713C1187.2 393.713 1202.67 409.346 1202.67 428.566C1202.67 447.787 1187.19 463.411 1168.17 463.411Z" fill="#F3F3F3" fill-opacity="0.6"/>
</g>
<g clip-path="url(#clip11_1401_403)">
<path d="M1352.17 136.584C1350.1 136.584 1348.03 136.717 1345.99 136.979C1339.51 116.255 1320.37 101.477 1298.5 101.477C1271.02 101.477 1248.67 124.341 1248.67 152.451C1248.67 152.906 1248.67 153.358 1248.68 153.809C1230.74 158.917 1218 175.581 1218 195.366C1218 219.17 1236.92 238.536 1260.17 238.536H1352.17C1379.64 238.536 1402 215.671 1402 187.562C1402 159.453 1379.64 136.584 1352.17 136.584ZM1352.17 222.411H1260.17C1245.37 222.411 1233.33 210.278 1233.33 195.366C1233.33 181.282 1243.82 169.708 1257.72 168.442C1259.9 168.245 1261.89 167.08 1263.2 165.237C1264.51 163.395 1265.01 161.053 1264.57 158.804C1264.19 156.833 1264 154.696 1264 152.451C1264 133.234 1279.48 117.601 1298.5 117.601C1315.62 117.601 1330.3 130.481 1332.65 147.561C1332.97 149.863 1334.22 151.91 1336.08 153.176C1337.94 154.438 1340.23 154.797 1342.36 154.156C1345.54 153.196 1348.84 152.713 1352.17 152.713C1371.2 152.713 1386.67 168.346 1386.67 187.566C1386.67 206.787 1371.19 222.411 1352.17 222.411Z" fill="#F3F3F3" fill-opacity="0.6"/>
</g>
<defs>
<clipPath id="clip0_1401_403">
<rect width="184" height="136" fill="white" transform="translate(33 103)"/>
</clipPath>
<clipPath id="clip1_1401_403">
<rect width="184" height="136" fill="white" transform="translate(184 244)"/>
</clipPath>
<clipPath id="clip2_1401_403">
<rect width="184" height="136" fill="white" transform="translate(346 104)"/>
</clipPath>
<clipPath id="clip3_1401_403">
<rect width="184" height="136" fill="white" transform="translate(0 381)"/>
</clipPath>
<clipPath id="clip4_1401_403">
<rect width="184" height="136" fill="white" transform="translate(656)"/>
</clipPath>
<clipPath id="clip5_1401_403">
<rect width="184" height="136" fill="white" transform="translate(957 118)"/>
</clipPath>
<clipPath id="clip6_1401_403">
<rect width="128" height="88" fill="white" transform="translate(840 268)"/>
</clipPath>
<clipPath id="clip7_1401_403">
<rect width="128" height="88" fill="white" transform="translate(643 180)"/>
</clipPath>
<clipPath id="clip8_1401_403">
<rect width="128" height="88" fill="white" transform="translate(739 391)"/>
</clipPath>
<clipPath id="clip9_1401_403">
<rect width="128" height="88" fill="white" transform="translate(1284 323)"/>
</clipPath>
<clipPath id="clip10_1401_403">
<rect width="184" height="136" fill="white" transform="translate(1034 343)"/>
</clipPath>
<clipPath id="clip11_1401_403">
<rect width="184" height="136" fill="white" transform="translate(1218 102)"/>
</clipPath>
</defs>
</svg>
