<svg width="22" height="22" viewBox="0 0 22 22" fill="none" xmlns="http://www.w3.org/2000/svg">
<path d="M0.741455 7.36563H21.2336C19.7424 3.14786 15.7234 0.124716 10.9956 0.121094H10.9792C6.25165 0.124716 2.23262 3.14786 0.741455 7.36563Z" fill="black"/>
<path d="M21.2336 14.6094H0.741455C2.23359 18.8296 6.25648 21.8539 10.9876 21.8539C15.7188 21.8539 19.7414 18.8296 21.2336 14.6094Z" fill="#FFCE00"/>
<path d="M21.2336 14.6117C21.6342 13.4784 21.8544 12.2599 21.8544 10.9895C21.8544 9.719 21.6345 8.50047 21.2336 7.36719H0.741464C0.340842 8.50047 0.12085 9.719 0.12085 10.9895C0.12085 12.2599 0.341083 13.4784 0.741706 14.6117H21.2336Z" fill="#DD0000"/>
</svg>
