<svg width="288" height="55" viewBox="0 0 288 55" fill="none" xmlns="http://www.w3.org/2000/svg">
<g filter="url(#filter0_d_33_9)">
<path d="M4 25.7026V46.3803H7.53971H11.0794V39.2251V32.0699H14.7996C18.8945 32.0699 20.4909 31.877 22.2954 31.1695C25.2105 30.0439 27.1261 28.0984 28.4865 24.9147C29.2916 23.0335 29.5414 21.7954 29.6386 19.4478C29.8052 15.2351 28.7918 11.8425 26.5431 9.09294C25.0162 7.21169 23.3226 6.1344 20.8657 5.49123C19.7135 5.18573 19.0472 5.15357 11.8151 5.10534L4 5.04102V25.7026ZM18.0617 12.775C19.8662 13.0805 21.1711 14.1578 21.9345 15.9587C22.351 16.9395 22.3926 17.1485 22.3926 18.5635C22.3787 20.5412 22.0456 21.6024 21.0322 22.7923C19.658 24.4163 18.7418 24.6735 14.3415 24.6735H11.0794V18.6439V12.6143H14.1055C15.7574 12.6143 17.5342 12.6946 18.0617 12.775Z" fill="#5E5E5E"/>
</g>
<g filter="url(#filter1_d_33_9)">
<path d="M232.205 25.7108V46.3804H235.594H238.982L239.009 34.7024L239.05 23.0245L244.078 31.598L249.107 40.1875L250.326 40.2358L251.533 40.284L256.398 31.9519C259.082 27.3836 261.386 23.491 261.508 23.314C261.725 22.9923 261.738 23.6036 261.752 34.6703V46.3804H265.208H268.664V25.7108V5.04113H266.319H263.961L257.686 15.9309C254.216 21.9307 251.167 27.2067 250.896 27.6732L250.408 28.5096L243.577 16.7834L236.746 5.05721L234.482 5.04113H232.205V25.7108Z" fill="#5E5E5E"/>
</g>
<g filter="url(#filter2_d_33_9)">
<path d="M279.592 14.5029L275.416 17.3433V31.87V46.3804H279.708H284V29.0133C284 19.4534 283.95 11.6463 283.884 11.6463C283.802 11.6625 281.87 12.9448 279.592 14.5029Z" fill="#5E5E5E"/>
</g>
<g filter="url(#filter3_d_33_9)">
<path d="M110.056 15.0316V5.35159H110.463H118.506V9.25697L110.056 15.0316Z" fill="url(#paint0_linear_33_9)"/>
</g>
<g filter="url(#filter4_d_33_9)">
<path d="M275.551 15.0316V5.35159H275.958H284V9.25697L275.551 15.0316Z" fill="url(#paint1_linear_33_9)"/>
</g>
<g filter="url(#filter5_d_33_9)">
<ellipse cx="58.9835" cy="36.147" rx="9.63973" ry="10.8408" fill="#FFCC00"/>
</g>
<g filter="url(#filter6_d_33_9)">
<ellipse cx="60.7813" cy="20.9995" rx="9.63973" ry="10.8408" fill="#FF9900"/>
</g>
<g filter="url(#filter7_d_33_9)">
<ellipse cx="43.6397" cy="20.334" rx="9.63973" ry="10.8408" fill="#CCEE66"/>
</g>
<g filter="url(#filter8_d_33_9)">
<ellipse cx="52.3487" cy="14.8408" rx="9.63973" ry="10.8408" fill="#FF6600"/>
</g>
<g filter="url(#filter9_d_33_9)">
<ellipse cx="9.66067" cy="10.8246" rx="9.66067" ry="10.8246" transform="matrix(0.992998 -0.118129 0.081769 0.996651 34.1387 26.4233)" fill="#99CC33"/>
</g>
<path d="M52.334 19.6899C55.6085 19.6901 58.7909 22.9314 58.791 27.6362C58.791 32.3413 55.6086 35.5833 52.334 35.5835C49.0593 35.5835 45.876 32.3414 45.876 27.6362C45.8761 22.9312 49.0594 19.6899 52.334 19.6899Z" fill="#F3F3F3" stroke="#565656" stroke-width="4"/>
<g filter="url(#filter10_d_33_9)">
<path d="M84.9229 38.4983H103.249V46.3801H77.5928V31.2239H84.9229V38.4983ZM84.9229 5.04128V20.8401H77.5928V5.04128H84.9229Z" fill="#5E5E5E"/>
</g>
<g filter="url(#filter11_d_33_9)">
<path d="M118.488 46.3804H110.001V30.8716H118.488V46.3804ZM118.455 11.1909C118.466 11.1817 118.475 14.9583 118.481 20.4878H110.001V16.9019L114.211 14.0464C116.506 12.49 118.419 11.1927 118.455 11.1909Z" fill="#5E5E5E"/>
</g>
<g filter="url(#filter12_d_33_9)">
<path d="M136.357 30.8721C135.984 31.3553 135.208 32.4124 134.351 33.6094L132.238 36.5938V46.836H125.24V30.8721H136.357ZM148.265 35.7071C151.763 41.4148 154.726 46.2521 154.838 46.4649L155.044 46.836H146.413L141.556 38.6905C139.337 34.9538 137.412 31.8011 136.793 30.8721H145.311C146.209 32.342 147.215 33.9885 148.265 35.7071ZM132.238 5.38284L132.265 15.1739L132.288 20.4883H125.24V5.38284H132.238ZM151.243 9.68948C149.61 12.0766 146.701 16.3185 144.78 19.125L143.844 20.4883H135.344L138.962 15.1739L145.617 5.39944H149.912L154.207 5.38284L151.243 9.68948Z" fill="#5E5E5E"/>
</g>
<g filter="url(#filter13_d_33_9)">
<path d="M179.271 30.8718C179.579 31.5095 181.265 34.8062 183.288 38.7176C185.528 43.0474 187.354 46.6079 187.355 46.658C187.355 46.6901 185.568 46.7224 183.394 46.7224H179.42L175.806 39.2146L172.192 31.7234H168.085L168.045 39.2146L168.018 46.7224H161.217V30.8718H179.271ZM168.191 5.49685C172.019 5.49685 175.686 5.5768 176.353 5.65701C180.447 6.21853 183.354 8.56123 185.008 12.6355C185.821 14.6244 185.955 15.5065 185.941 18.6502C185.941 19.4511 185.938 20.0326 185.925 20.4881H178.854C179.143 19.3871 179.148 18.1401 178.834 16.8855C178.58 15.9073 178.42 15.5864 177.78 14.8006C177.233 14.1429 176.793 13.7744 176.219 13.5017C175.473 13.1649 175.192 13.1323 171.792 13.0681C168.82 13.02 168.139 13.0521 168.085 13.2283C168.045 13.3406 168.031 15.8917 168.045 18.8914L168.056 20.4881H161.217V5.49685H168.191Z" fill="#5E5E5E"/>
</g>
<g filter="url(#filter14_d_33_9)">
<path d="M225.454 46.3811L221.849 46.3489L218.257 46.3001L217.064 42.1184C216.415 39.8207 215.833 37.8114 215.779 37.6468C215.686 37.3894 215.275 37.3724 209.761 37.4046L203.836 37.4534L202.537 41.8606C201.822 44.2734 201.211 46.2845 201.185 46.3167C201.152 46.3646 199.55 46.3649 197.619 46.3489L194.107 46.3001L198.956 30.8714H220.641L225.454 46.3811ZM209.867 5.07351L212.663 5.12136L213.764 8.66042C214.168 9.98001 215.623 14.6705 217.425 20.4876H211.059C210.371 18.1265 209.87 16.4622 209.84 16.4622C209.811 16.4633 209.27 18.2318 208.597 20.4876H202.223C204.816 12.2557 206.774 6.03191 206.871 5.71706L207.083 5.04128L209.867 5.07351Z" fill="#5E5E5E"/>
</g>
<g filter="url(#filter15_d_33_9)">
<rect x="78" y="26" width="30" height="1" fill="#659E36"/>
</g>
<g filter="url(#filter16_d_33_9)">
<rect x="189" y="25" width="30" height="1" fill="#FF9900"/>
</g>
<g filter="url(#filter17_d_33_9)">
<path d="M178 23.078C179.038 23.0518 179.038 23.0518 180.097 23.0251C180.42 23.0136 180.42 23.0136 180.749 23.0018C181.781 22.9892 182.268 23.0322 183.171 23.4655C183.88 24.0498 183.979 24.3963 184 25.193C183.714 26.0065 183.562 26.1949 182.636 26.6735C183.032 27.4753 183.496 28.2359 184 29C183.28 29 182.56 29 181.818 29C181.726 28.865 181.634 28.7301 181.539 28.591C181.417 28.4163 181.296 28.2415 181.17 28.0615C181.05 27.8873 180.93 27.713 180.806 27.5335C180.5 27.068 180.5 27.068 179.909 26.885C179.909 27.583 179.909 28.2809 179.909 29C179.279 29 178.649 29 178 29C178 27.0457 178 25.0915 178 23.078ZM179.909 24.1355C179.909 24.6241 179.909 25.1126 179.909 25.616C180.539 25.616 181.169 25.616 181.818 25.616C182.004 25.109 182.004 25.109 182.091 24.5585C181.573 24.0615 181.573 24.0615 180.693 24.1091C180.434 24.1178 180.176 24.1265 179.909 24.1355Z" fill="#5D5D5D"/>
<path d="M163 23C164.98 23 166.96 23 169 23C169 23.3536 169 23.7071 169 24.0714C167.719 24.0714 166.438 24.0714 165.118 24.0714C165.118 24.4957 165.118 24.92 165.118 25.3571C166.282 25.3571 167.447 25.3571 168.647 25.3571C168.647 25.7107 168.647 26.0643 168.647 26.4286C167.482 26.4286 166.318 26.4286 165.118 26.4286C165.118 26.9236 165.118 27.4186 165.118 27.9286C166.399 27.9286 167.68 27.9286 169 27.9286C169 28.2821 169 28.6357 169 29C167.02 29 165.04 29 163 29C163 27.02 163 25.04 163 23Z" fill="#5D5D5D"/>
<path d="M147 23C147.495 23 147.99 23 148.5 23C148.67 23.4005 148.84 23.8013 149.009 24.2022C149.103 24.4254 149.198 24.6485 149.295 24.8785C149.557 25.5282 149.785 26.1807 150 26.8471C150.588 25.5879 151.085 24.3261 151.5 23C151.995 23 152.49 23 153 23C152.864 23.7636 152.663 24.4655 152.397 25.194C152.322 25.4018 152.246 25.6095 152.168 25.8235C152.089 26.0379 152.01 26.2522 151.929 26.4731C151.81 26.7995 151.81 26.7995 151.689 27.1326C151.099 28.7427 151.099 28.7427 150.857 28.9843C150.285 29.0145 149.716 28.9934 149.143 28.9843C148.837 28.1666 148.532 27.3487 148.227 26.5306C148.124 26.2521 148.02 25.9737 147.916 25.6953C147.766 25.296 147.618 24.8965 147.469 24.4969C147.379 24.2563 147.289 24.0156 147.197 23.7677C147 23.2137 147 23.2137 147 23Z" fill="#5E5E5E"/>
<path d="M134.307 23.1968C135.086 23.6149 135.592 24.1844 135.925 24.9937C136.068 25.9906 136.036 26.7739 135.571 27.6765C134.748 28.6021 134.199 28.901 132.955 29C131.998 28.9729 131.309 28.5848 130.592 27.9885C129.964 27.226 129.994 26.4354 130.003 25.4944C130.11 24.5709 130.602 24.0284 131.287 23.4339C132.265 22.8419 133.226 22.9527 134.307 23.1968ZM131.476 24.9937C131.244 25.7822 131.187 26.1975 131.527 26.9528C131.878 27.4315 131.878 27.4315 132.487 27.7888C133.428 27.7491 133.428 27.7491 134.244 27.3342C134.667 26.7861 134.617 26.3071 134.594 25.6387C134.455 24.9088 134.102 24.6059 133.498 24.1951C132.583 23.9918 132.094 24.3334 131.476 24.9937Z" fill="#5D5D5D"/>
<path d="M117.913 23.4319C118.412 23.8004 118.747 24.1221 118.973 24.6836C118.982 24.7947 118.991 24.9059 119 25.0204C117.846 25.0738 117.846 25.0738 117.3 25.0204C117.088 24.8208 116.875 24.6212 116.663 24.4215C115.903 24.4214 115.903 24.4214 115.176 24.6212C114.653 25.3578 114.606 25.9621 114.751 26.8172C115.043 27.3584 115.043 27.3584 115.601 27.6158C116.675 27.5872 116.675 27.5872 117.513 27.0168C118.283 26.9919 118.283 26.9919 119 27.0168C118.712 27.9036 118.364 28.3371 117.513 28.8136C116.524 29.07 115.777 29.0621 114.791 28.7886C113.954 28.3262 113.483 27.8282 113.051 27.0168C112.926 25.8822 112.993 24.9909 113.689 24.0223C114.873 22.9667 116.425 22.6575 117.913 23.4319Z" fill="#5D5D5D"/>
</g>
<defs>
<filter id="filter0_d_33_9" x="0" y="5.04102" width="33.6562" height="49.3392" filterUnits="userSpaceOnUse" color-interpolation-filters="sRGB">
<feFlood flood-opacity="0" result="BackgroundImageFix"/>
<feColorMatrix in="SourceAlpha" type="matrix" values="0 0 0 0 0 0 0 0 0 0 0 0 0 0 0 0 0 0 127 0" result="hardAlpha"/>
<feOffset dy="4"/>
<feGaussianBlur stdDeviation="2"/>
<feComposite in2="hardAlpha" operator="out"/>
<feColorMatrix type="matrix" values="0 0 0 0 0 0 0 0 0 0 0 0 0 0 0 0 0 0 0.25 0"/>
<feBlend mode="normal" in2="BackgroundImageFix" result="effect1_dropShadow_33_9"/>
<feBlend mode="normal" in="SourceGraphic" in2="effect1_dropShadow_33_9" result="shape"/>
</filter>
<filter id="filter1_d_33_9" x="228.205" y="5.04113" width="44.4588" height="49.3392" filterUnits="userSpaceOnUse" color-interpolation-filters="sRGB">
<feFlood flood-opacity="0" result="BackgroundImageFix"/>
<feColorMatrix in="SourceAlpha" type="matrix" values="0 0 0 0 0 0 0 0 0 0 0 0 0 0 0 0 0 0 127 0" result="hardAlpha"/>
<feOffset dy="4"/>
<feGaussianBlur stdDeviation="2"/>
<feComposite in2="hardAlpha" operator="out"/>
<feColorMatrix type="matrix" values="0 0 0 0 0 0 0 0 0 0 0 0 0 0 0 0 0 0 0.25 0"/>
<feBlend mode="normal" in2="BackgroundImageFix" result="effect1_dropShadow_33_9"/>
<feBlend mode="normal" in="SourceGraphic" in2="effect1_dropShadow_33_9" result="shape"/>
</filter>
<filter id="filter2_d_33_9" x="271.416" y="11.6463" width="16.5842" height="42.7341" filterUnits="userSpaceOnUse" color-interpolation-filters="sRGB">
<feFlood flood-opacity="0" result="BackgroundImageFix"/>
<feColorMatrix in="SourceAlpha" type="matrix" values="0 0 0 0 0 0 0 0 0 0 0 0 0 0 0 0 0 0 127 0" result="hardAlpha"/>
<feOffset dy="4"/>
<feGaussianBlur stdDeviation="2"/>
<feComposite in2="hardAlpha" operator="out"/>
<feColorMatrix type="matrix" values="0 0 0 0 0 0 0 0 0 0 0 0 0 0 0 0 0 0 0.25 0"/>
<feBlend mode="normal" in2="BackgroundImageFix" result="effect1_dropShadow_33_9"/>
<feBlend mode="normal" in="SourceGraphic" in2="effect1_dropShadow_33_9" result="shape"/>
</filter>
<filter id="filter3_d_33_9" x="106.056" y="5.35159" width="16.4495" height="17.68" filterUnits="userSpaceOnUse" color-interpolation-filters="sRGB">
<feFlood flood-opacity="0" result="BackgroundImageFix"/>
<feColorMatrix in="SourceAlpha" type="matrix" values="0 0 0 0 0 0 0 0 0 0 0 0 0 0 0 0 0 0 127 0" result="hardAlpha"/>
<feOffset dy="4"/>
<feGaussianBlur stdDeviation="2"/>
<feComposite in2="hardAlpha" operator="out"/>
<feColorMatrix type="matrix" values="0 0 0 0 0 0 0 0 0 0 0 0 0 0 0 0 0 0 0.25 0"/>
<feBlend mode="normal" in2="BackgroundImageFix" result="effect1_dropShadow_33_9"/>
<feBlend mode="normal" in="SourceGraphic" in2="effect1_dropShadow_33_9" result="shape"/>
</filter>
<filter id="filter4_d_33_9" x="271.551" y="5.35159" width="16.4495" height="17.68" filterUnits="userSpaceOnUse" color-interpolation-filters="sRGB">
<feFlood flood-opacity="0" result="BackgroundImageFix"/>
<feColorMatrix in="SourceAlpha" type="matrix" values="0 0 0 0 0 0 0 0 0 0 0 0 0 0 0 0 0 0 127 0" result="hardAlpha"/>
<feOffset dy="4"/>
<feGaussianBlur stdDeviation="2"/>
<feComposite in2="hardAlpha" operator="out"/>
<feColorMatrix type="matrix" values="0 0 0 0 0 0 0 0 0 0 0 0 0 0 0 0 0 0 0.25 0"/>
<feBlend mode="normal" in2="BackgroundImageFix" result="effect1_dropShadow_33_9"/>
<feBlend mode="normal" in="SourceGraphic" in2="effect1_dropShadow_33_9" result="shape"/>
</filter>
<filter id="filter5_d_33_9" x="45.3438" y="23.3062" width="27.2794" height="29.6817" filterUnits="userSpaceOnUse" color-interpolation-filters="sRGB">
<feFlood flood-opacity="0" result="BackgroundImageFix"/>
<feColorMatrix in="SourceAlpha" type="matrix" values="0 0 0 0 0 0 0 0 0 0 0 0 0 0 0 0 0 0 127 0" result="hardAlpha"/>
<feOffset dy="2"/>
<feGaussianBlur stdDeviation="2"/>
<feComposite in2="hardAlpha" operator="out"/>
<feColorMatrix type="matrix" values="0 0 0 0 0 0 0 0 0 0 0 0 0 0 0 0 0 0 0.25 0"/>
<feBlend mode="normal" in2="BackgroundImageFix" result="effect1_dropShadow_33_9"/>
<feBlend mode="normal" in="SourceGraphic" in2="effect1_dropShadow_33_9" result="shape"/>
</filter>
<filter id="filter6_d_33_9" x="47.1416" y="8.15869" width="27.2794" height="29.6817" filterUnits="userSpaceOnUse" color-interpolation-filters="sRGB">
<feFlood flood-opacity="0" result="BackgroundImageFix"/>
<feColorMatrix in="SourceAlpha" type="matrix" values="0 0 0 0 0 0 0 0 0 0 0 0 0 0 0 0 0 0 127 0" result="hardAlpha"/>
<feOffset dy="2"/>
<feGaussianBlur stdDeviation="2"/>
<feComposite in2="hardAlpha" operator="out"/>
<feColorMatrix type="matrix" values="0 0 0 0 0 0 0 0 0 0 0 0 0 0 0 0 0 0 0.25 0"/>
<feBlend mode="normal" in2="BackgroundImageFix" result="effect1_dropShadow_33_9"/>
<feBlend mode="normal" in="SourceGraphic" in2="effect1_dropShadow_33_9" result="shape"/>
</filter>
<filter id="filter7_d_33_9" x="30" y="7.49316" width="27.2794" height="29.6817" filterUnits="userSpaceOnUse" color-interpolation-filters="sRGB">
<feFlood flood-opacity="0" result="BackgroundImageFix"/>
<feColorMatrix in="SourceAlpha" type="matrix" values="0 0 0 0 0 0 0 0 0 0 0 0 0 0 0 0 0 0 127 0" result="hardAlpha"/>
<feOffset dy="2"/>
<feGaussianBlur stdDeviation="2"/>
<feComposite in2="hardAlpha" operator="out"/>
<feColorMatrix type="matrix" values="0 0 0 0 0 0 0 0 0 0 0 0 0 0 0 0 0 0 0.25 0"/>
<feBlend mode="normal" in2="BackgroundImageFix" result="effect1_dropShadow_33_9"/>
<feBlend mode="normal" in="SourceGraphic" in2="effect1_dropShadow_33_9" result="shape"/>
</filter>
<filter id="filter8_d_33_9" x="38.709" y="0" width="27.2794" height="29.6817" filterUnits="userSpaceOnUse" color-interpolation-filters="sRGB">
<feFlood flood-opacity="0" result="BackgroundImageFix"/>
<feColorMatrix in="SourceAlpha" type="matrix" values="0 0 0 0 0 0 0 0 0 0 0 0 0 0 0 0 0 0 127 0" result="hardAlpha"/>
<feOffset/>
<feGaussianBlur stdDeviation="2"/>
<feComposite in2="hardAlpha" operator="out"/>
<feColorMatrix type="matrix" values="0 0 0 0 0 0 0 0 0 0 0 0 0 0 0 0 0 0 0.25 0"/>
<feBlend mode="normal" in2="BackgroundImageFix" result="effect1_dropShadow_33_9"/>
<feBlend mode="normal" in="SourceGraphic" in2="effect1_dropShadow_33_9" result="shape"/>
</filter>
<filter id="filter9_d_33_9" x="30.9824" y="23.2211" width="27.2688" height="29.6988" filterUnits="userSpaceOnUse" color-interpolation-filters="sRGB">
<feFlood flood-opacity="0" result="BackgroundImageFix"/>
<feColorMatrix in="SourceAlpha" type="matrix" values="0 0 0 0 0 0 0 0 0 0 0 0 0 0 0 0 0 0 127 0" result="hardAlpha"/>
<feOffset dy="2"/>
<feGaussianBlur stdDeviation="2"/>
<feComposite in2="hardAlpha" operator="out"/>
<feColorMatrix type="matrix" values="0 0 0 0 0 0 0 0 0 0 0 0 0 0 0 0 0 0 0.25 0"/>
<feBlend mode="normal" in2="BackgroundImageFix" result="effect1_dropShadow_33_9"/>
<feBlend mode="normal" in="SourceGraphic" in2="effect1_dropShadow_33_9" result="shape"/>
</filter>
<filter id="filter10_d_33_9" x="73.5928" y="5.04128" width="33.6562" height="49.3389" filterUnits="userSpaceOnUse" color-interpolation-filters="sRGB">
<feFlood flood-opacity="0" result="BackgroundImageFix"/>
<feColorMatrix in="SourceAlpha" type="matrix" values="0 0 0 0 0 0 0 0 0 0 0 0 0 0 0 0 0 0 127 0" result="hardAlpha"/>
<feOffset dy="4"/>
<feGaussianBlur stdDeviation="2"/>
<feComposite in2="hardAlpha" operator="out"/>
<feColorMatrix type="matrix" values="0 0 0 0 0 0 0 0 0 0 0 0 0 0 0 0 0 0 0.25 0"/>
<feBlend mode="normal" in2="BackgroundImageFix" result="effect1_dropShadow_33_9"/>
<feBlend mode="normal" in="SourceGraphic" in2="effect1_dropShadow_33_9" result="shape"/>
</filter>
<filter id="filter11_d_33_9" x="106.001" y="11.1909" width="16.4873" height="43.1895" filterUnits="userSpaceOnUse" color-interpolation-filters="sRGB">
<feFlood flood-opacity="0" result="BackgroundImageFix"/>
<feColorMatrix in="SourceAlpha" type="matrix" values="0 0 0 0 0 0 0 0 0 0 0 0 0 0 0 0 0 0 127 0" result="hardAlpha"/>
<feOffset dy="4"/>
<feGaussianBlur stdDeviation="2"/>
<feComposite in2="hardAlpha" operator="out"/>
<feColorMatrix type="matrix" values="0 0 0 0 0 0 0 0 0 0 0 0 0 0 0 0 0 0 0.25 0"/>
<feBlend mode="normal" in2="BackgroundImageFix" result="effect1_dropShadow_33_9"/>
<feBlend mode="normal" in="SourceGraphic" in2="effect1_dropShadow_33_9" result="shape"/>
</filter>
<filter id="filter12_d_33_9" x="121.24" y="5.38284" width="37.8037" height="49.4531" filterUnits="userSpaceOnUse" color-interpolation-filters="sRGB">
<feFlood flood-opacity="0" result="BackgroundImageFix"/>
<feColorMatrix in="SourceAlpha" type="matrix" values="0 0 0 0 0 0 0 0 0 0 0 0 0 0 0 0 0 0 127 0" result="hardAlpha"/>
<feOffset dy="4"/>
<feGaussianBlur stdDeviation="2"/>
<feComposite in2="hardAlpha" operator="out"/>
<feColorMatrix type="matrix" values="0 0 0 0 0 0 0 0 0 0 0 0 0 0 0 0 0 0 0.25 0"/>
<feBlend mode="normal" in2="BackgroundImageFix" result="effect1_dropShadow_33_9"/>
<feBlend mode="normal" in="SourceGraphic" in2="effect1_dropShadow_33_9" result="shape"/>
</filter>
<filter id="filter13_d_33_9" x="157.217" y="5.49685" width="34.1387" height="49.2256" filterUnits="userSpaceOnUse" color-interpolation-filters="sRGB">
<feFlood flood-opacity="0" result="BackgroundImageFix"/>
<feColorMatrix in="SourceAlpha" type="matrix" values="0 0 0 0 0 0 0 0 0 0 0 0 0 0 0 0 0 0 127 0" result="hardAlpha"/>
<feOffset dy="4"/>
<feGaussianBlur stdDeviation="2"/>
<feComposite in2="hardAlpha" operator="out"/>
<feColorMatrix type="matrix" values="0 0 0 0 0 0 0 0 0 0 0 0 0 0 0 0 0 0 0.25 0"/>
<feBlend mode="normal" in2="BackgroundImageFix" result="effect1_dropShadow_33_9"/>
<feBlend mode="normal" in="SourceGraphic" in2="effect1_dropShadow_33_9" result="shape"/>
</filter>
<filter id="filter14_d_33_9" x="190.107" y="5.04128" width="39.3477" height="49.3398" filterUnits="userSpaceOnUse" color-interpolation-filters="sRGB">
<feFlood flood-opacity="0" result="BackgroundImageFix"/>
<feColorMatrix in="SourceAlpha" type="matrix" values="0 0 0 0 0 0 0 0 0 0 0 0 0 0 0 0 0 0 127 0" result="hardAlpha"/>
<feOffset dy="4"/>
<feGaussianBlur stdDeviation="2"/>
<feComposite in2="hardAlpha" operator="out"/>
<feColorMatrix type="matrix" values="0 0 0 0 0 0 0 0 0 0 0 0 0 0 0 0 0 0 0.25 0"/>
<feBlend mode="normal" in2="BackgroundImageFix" result="effect1_dropShadow_33_9"/>
<feBlend mode="normal" in="SourceGraphic" in2="effect1_dropShadow_33_9" result="shape"/>
</filter>
<filter id="filter15_d_33_9" x="74" y="26" width="38" height="9" filterUnits="userSpaceOnUse" color-interpolation-filters="sRGB">
<feFlood flood-opacity="0" result="BackgroundImageFix"/>
<feColorMatrix in="SourceAlpha" type="matrix" values="0 0 0 0 0 0 0 0 0 0 0 0 0 0 0 0 0 0 127 0" result="hardAlpha"/>
<feOffset dy="4"/>
<feGaussianBlur stdDeviation="2"/>
<feComposite in2="hardAlpha" operator="out"/>
<feColorMatrix type="matrix" values="0 0 0 0 0 0 0 0 0 0 0 0 0 0 0 0 0 0 0.25 0"/>
<feBlend mode="normal" in2="BackgroundImageFix" result="effect1_dropShadow_33_9"/>
<feBlend mode="normal" in="SourceGraphic" in2="effect1_dropShadow_33_9" result="shape"/>
</filter>
<filter id="filter16_d_33_9" x="185" y="25" width="38" height="9" filterUnits="userSpaceOnUse" color-interpolation-filters="sRGB">
<feFlood flood-opacity="0" result="BackgroundImageFix"/>
<feColorMatrix in="SourceAlpha" type="matrix" values="0 0 0 0 0 0 0 0 0 0 0 0 0 0 0 0 0 0 127 0" result="hardAlpha"/>
<feOffset dy="4"/>
<feGaussianBlur stdDeviation="2"/>
<feComposite in2="hardAlpha" operator="out"/>
<feColorMatrix type="matrix" values="0 0 0 0 0 0 0 0 0 0 0 0 0 0 0 0 0 0 0.25 0"/>
<feBlend mode="normal" in2="BackgroundImageFix" result="effect1_dropShadow_33_9"/>
<feBlend mode="normal" in="SourceGraphic" in2="effect1_dropShadow_33_9" result="shape"/>
</filter>
<filter id="filter17_d_33_9" x="109" y="23" width="79" height="14" filterUnits="userSpaceOnUse" color-interpolation-filters="sRGB">
<feFlood flood-opacity="0" result="BackgroundImageFix"/>
<feColorMatrix in="SourceAlpha" type="matrix" values="0 0 0 0 0 0 0 0 0 0 0 0 0 0 0 0 0 0 127 0" result="hardAlpha"/>
<feOffset dy="4"/>
<feGaussianBlur stdDeviation="2"/>
<feComposite in2="hardAlpha" operator="out"/>
<feColorMatrix type="matrix" values="0 0 0 0 0 0 0 0 0 0 0 0 0 0 0 0 0 0 0.25 0"/>
<feBlend mode="normal" in2="BackgroundImageFix" result="effect1_dropShadow_33_9"/>
<feBlend mode="normal" in="SourceGraphic" in2="effect1_dropShadow_33_9" result="shape"/>
</filter>
<linearGradient id="paint0_linear_33_9" x1="114.281" y1="5.35159" x2="114.281" y2="15.0316" gradientUnits="userSpaceOnUse">
<stop stop-color="#DC3597"/>
<stop offset="1" stop-color="#1B5664"/>
</linearGradient>
<linearGradient id="paint1_linear_33_9" x1="279.775" y1="5.35159" x2="279.775" y2="15.0316" gradientUnits="userSpaceOnUse">
<stop stop-color="#36ADCA"/>
<stop offset="1" stop-color="#1B5664"/>
</linearGradient>
</defs>
</svg>
