<svg width="280" height="44" viewBox="0 0 280 44" fill="none" xmlns="http://www.w3.org/2000/svg">
<path d="M0 21.7026V42.3803H3.53971H7.07942V35.2251V28.0699H10.7996C14.8945 28.0699 16.4909 27.877 18.2954 27.1695C21.2105 26.0439 23.1261 24.0984 24.4865 20.9147C25.2916 19.0335 25.5414 17.7954 25.6386 15.4478C25.8052 11.2351 24.7918 7.84246 22.5431 5.09294C21.0162 3.21169 19.3226 2.1344 16.8657 1.49123C15.7135 1.18573 15.0472 1.15357 7.81512 1.10534L0 1.04102V21.7026ZM14.0617 8.77504C15.8662 9.08054 17.1711 10.1578 17.9345 11.9587C18.351 12.9395 18.3926 13.1485 18.3926 14.5635C18.3787 16.5412 18.0456 17.6024 17.0322 18.7923C15.658 20.4163 14.7418 20.6735 10.3415 20.6735H7.07942V14.6439V8.61425H10.1055C11.7574 8.61425 13.5342 8.69465 14.0617 8.77504Z" fill="#5E5E5E"/>
<path d="M228.205 21.7108V42.3804H231.594H234.982L235.009 30.7024L235.05 19.0245L240.078 27.598L245.107 36.1875L246.326 36.2358L247.533 36.284L252.398 27.9519C255.082 23.3836 257.386 19.491 257.508 19.314C257.725 18.9923 257.738 19.6036 257.752 30.6703V42.3804H261.208H264.664V21.7108V1.04113H262.319H259.961L253.686 11.9309C250.216 17.9307 247.167 23.2067 246.896 23.6732L246.408 24.5096L239.577 12.7834L232.746 1.05721L230.482 1.04113H228.205V21.7108Z" fill="#5E5E5E"/>
<path d="M275.592 10.5029L271.416 13.3433V27.87V42.3804H275.708H280V25.0133C280 15.4534 279.95 7.6463 279.884 7.6463C279.802 7.66253 277.87 8.94477 275.592 10.5029Z" fill="#5E5E5E"/>
<path d="M106.056 11.0316V1.35159H106.463H114.506V5.25697L106.056 11.0316Z" fill="url(#paint0_linear_33_9)"/>
<path d="M271.551 11.0316V1.35159H271.958H280V5.25697L271.551 11.0316Z" fill="url(#paint1_linear_33_9)"/>
<ellipse cx="54.9835" cy="32.147" rx="9.63973" ry="10.8408" fill="#FFCC00"/>
<ellipse cx="56.7813" cy="16.9995" rx="9.63973" ry="10.8408" fill="#FF9900"/>
<ellipse cx="39.6397" cy="16.334" rx="9.63973" ry="10.8408" fill="#83ABD8"/>
<ellipse cx="48.3487" cy="10.8408" rx="9.63973" ry="10.8408" fill="#FF6600"/>
<ellipse cx="9.66067" cy="10.8246" rx="9.66067" ry="10.8246" transform="matrix(0.992998 -0.118129 0.081769 0.996651 30.1387 22.4233)" fill="#99CC33"/>
<path d="M48.334 15.6899C51.6085 15.6901 54.7909 18.9314 54.791 23.6362C54.791 28.3413 51.6086 31.5833 48.334 31.5835C45.0593 31.5835 41.876 28.3414 41.876 23.6362C41.8761 18.9312 45.0594 15.6899 48.334 15.6899Z" fill="#F3F3F3" stroke="#565656" stroke-width="4"/>
<path d="M80.9229 34.4983H99.2491V42.3801H73.5928V27.2239H80.9229V34.4983ZM80.9229 1.04128V16.8401H73.5928V1.04128H80.9229Z" fill="#5E5E5E"/>
<path d="M114.488 42.3804H106.001V26.8716H114.488V42.3804ZM114.455 7.19094C114.466 7.18166 114.475 10.9582 114.481 16.4878H106.001V12.9019L110.211 10.0464C112.506 8.48999 114.419 7.19273 114.455 7.19094Z" fill="#5E5E5E"/>
<path d="M132.357 26.8721C131.984 27.3553 131.208 28.4124 130.351 29.6094L128.238 32.5938V42.836H121.24V26.8721H132.357ZM144.265 31.7071C147.763 37.4148 150.726 42.2521 150.838 42.4649L151.044 42.836H142.413L137.556 34.6905C135.337 30.9538 133.412 27.8011 132.793 26.8721H141.311C142.209 28.342 143.215 29.9885 144.265 31.7071ZM128.238 1.38284L128.265 11.1739L128.288 16.4883H121.24V1.38284H128.238ZM147.243 5.68948C145.61 8.07656 142.701 12.3185 140.78 15.125L139.844 16.4883H131.344L134.962 11.1739L141.617 1.39944H145.912L150.207 1.38284L147.243 5.68948Z" fill="#5E5E5E"/>
<path d="M175.271 26.8718C175.579 27.5095 177.265 30.8062 179.288 34.7176C181.528 39.0474 183.354 42.6079 183.355 42.658C183.355 42.6901 181.568 42.7224 179.394 42.7224H175.42L171.806 35.2146L168.192 27.7234H164.085L164.045 35.2146L164.018 42.7224H157.217V26.8718H175.271ZM164.191 1.49685C168.019 1.49685 171.686 1.5768 172.353 1.65701C176.447 2.21853 179.354 4.56123 181.008 8.63552C181.821 10.6244 181.955 11.5065 181.941 14.6502C181.941 15.4511 181.938 16.0326 181.925 16.4881H174.854C175.143 15.3871 175.148 14.1401 174.834 12.8855C174.58 11.9073 174.42 11.5864 173.78 10.8006C173.233 10.1429 172.793 9.77442 172.219 9.50173C171.473 9.16487 171.192 9.13231 167.792 9.06814C164.82 9.02005 164.139 9.05212 164.085 9.22829C164.045 9.34058 164.031 11.8917 164.045 14.8914L164.056 16.4881H157.217V1.49685H164.191Z" fill="#5E5E5E"/>
<path d="M221.454 42.3811L217.849 42.3489L214.257 42.3001L213.064 38.1184C212.415 35.8207 211.833 33.8114 211.779 33.6468C211.686 33.3894 211.275 33.3724 205.761 33.4046L199.836 33.4534L198.537 37.8606C197.822 40.2734 197.211 42.2845 197.185 42.3167C197.152 42.3646 195.55 42.3649 193.619 42.3489L190.107 42.3001L194.956 26.8714H216.641L221.454 42.3811ZM205.867 1.07351L208.663 1.12136L209.764 4.66042C210.168 5.98001 211.623 10.6705 213.425 16.4876H207.059C206.371 14.1265 205.87 12.4622 205.84 12.4622C205.811 12.4633 205.27 14.2318 204.597 16.4876H198.223C200.816 8.25567 202.774 2.03191 202.871 1.71706L203.083 1.04128L205.867 1.07351Z" fill="#5E5E5E"/>
<rect x="73" y="22" width="30" height="1" fill="#659E36"/>
<path d="M186 22H216V23H186V22Z" fill="#FF9900"/>
<path d="M174 25V19H177.013C177.598 19 178.101 19.0914 178.525 19.2743C178.954 19.4571 179.285 19.72 179.517 20.0629C179.75 20.4 179.866 20.8 179.866 21.2629C179.866 21.7257 179.75 22.1257 179.517 22.4629C179.285 22.7943 178.954 23.0486 178.525 23.2257C178.101 23.4029 177.598 23.4914 177.013 23.4914H175.171L176.11 22.66V25H174ZM177.747 25L176.209 22.8143H178.444L180 25H177.747ZM176.11 22.8829L175.171 21.9657H176.879C177.171 21.9657 177.386 21.9029 177.523 21.7771C177.666 21.6514 177.738 21.48 177.738 21.2629C177.738 21.0457 177.666 20.8743 177.523 20.7486C177.386 20.6229 177.171 20.56 176.879 20.56H175.171L176.11 19.6429V22.8829Z" fill="#5E5E5E"/>
<path d="M160.227 21.2286H163.443V22.6857H160.227V21.2286ZM160.392 23.4743H164V25H158V19H163.866V20.5257H160.392V23.4743Z" fill="#5E5E5E"/>
<path d="M143.155 25L141 19H142.85L144.604 24.0657H143.505L145.311 19H147L144.845 25H143.155Z" fill="#5E5E5E"/>
<path d="M128 25C127.57 25 127.17 24.9262 126.8 24.7787C126.435 24.6311 126.119 24.4235 125.851 24.1557C125.582 23.8825 125.372 23.5628 125.22 23.1967C125.073 22.8306 125 22.4317 125 22C125 21.5628 125.073 21.1639 125.22 20.8033C125.372 20.4372 125.582 20.1202 125.851 19.8525C126.119 19.5792 126.435 19.3689 126.8 19.2213C127.17 19.0738 127.57 19 128 19C128.435 19 128.835 19.0738 129.2 19.2213C129.565 19.3689 129.881 19.5792 130.149 19.8525C130.418 20.1202 130.625 20.4372 130.772 20.8033C130.924 21.1639 131 21.5628 131 22C131 22.4317 130.924 22.8306 130.772 23.1967C130.625 23.5628 130.418 23.8825 130.149 24.1557C129.881 24.4235 129.565 24.6311 129.2 24.7787C128.835 24.9262 128.435 25 128 25ZM128 23.4344C128.167 23.4344 128.322 23.4016 128.463 23.3361C128.61 23.2705 128.737 23.1776 128.843 23.0574C128.954 22.9317 129.041 22.7814 129.101 22.6066C129.162 22.4262 129.192 22.224 129.192 22C129.192 21.776 129.162 21.5765 129.101 21.4016C129.041 21.2213 128.954 21.071 128.843 20.9508C128.737 20.8251 128.61 20.7295 128.463 20.6639C128.322 20.5984 128.167 20.5656 128 20.5656C127.833 20.5656 127.676 20.5984 127.529 20.6639C127.387 20.7295 127.261 20.8251 127.149 20.9508C127.043 21.071 126.959 21.2213 126.899 21.4016C126.838 21.5765 126.808 21.776 126.808 22C126.808 22.224 126.838 22.4262 126.899 22.6066C126.959 22.7814 127.043 22.9317 127.149 23.0574C127.261 23.1776 127.387 23.2705 127.529 23.3361C127.676 23.4016 127.833 23.4344 128 23.4344Z" fill="#5E5E5E"/>
<path d="M111.324 25C110.847 25 110.403 24.929 109.994 24.7869C109.591 24.6393 109.239 24.4317 108.938 24.1639C108.642 23.8962 108.412 23.5792 108.247 23.2131C108.082 22.847 108 22.4426 108 22C108 21.5574 108.082 21.153 108.247 20.7869C108.412 20.4208 108.642 20.1038 108.938 19.8361C109.239 19.5683 109.591 19.3634 109.994 19.2213C110.403 19.0738 110.847 19 111.324 19C111.909 19 112.426 19.0984 112.875 19.2951C113.33 19.4918 113.705 19.776 114 20.1475L112.73 21.2377C112.554 21.0246 112.358 20.8607 112.142 20.7459C111.932 20.6257 111.693 20.5656 111.426 20.5656C111.216 20.5656 111.026 20.5984 110.855 20.6639C110.685 20.7295 110.537 20.8251 110.412 20.9508C110.293 21.0765 110.199 21.2295 110.131 21.4098C110.062 21.5847 110.028 21.7814 110.028 22C110.028 22.2186 110.062 22.418 110.131 22.5984C110.199 22.7732 110.293 22.9235 110.412 23.0492C110.537 23.1749 110.685 23.2705 110.855 23.3361C111.026 23.4016 111.216 23.4344 111.426 23.4344C111.693 23.4344 111.932 23.377 112.142 23.2623C112.358 23.1421 112.554 22.9754 112.73 22.7623L114 23.8525C113.705 24.2186 113.33 24.5027 112.875 24.7049C112.426 24.9016 111.909 25 111.324 25Z" fill="#5E5E5E"/>
<defs>
<linearGradient id="paint0_linear_33_9" x1="110.281" y1="1.35159" x2="110.281" y2="11.0316" gradientUnits="userSpaceOnUse">
<stop stop-color="#DC3597"/>
<stop offset="1" stop-color="#1B5664"/>
</linearGradient>
<linearGradient id="paint1_linear_33_9" x1="275.775" y1="1.35159" x2="275.775" y2="11.0316" gradientUnits="userSpaceOnUse">
<stop stop-color="#36ADCA"/>
<stop offset="1" stop-color="#1B5664"/>
</linearGradient>
</defs>
</svg>
