<svg width="280" height="44" viewBox="0 0 280 44" fill="none" xmlns="http://www.w3.org/2000/svg">
<path d="M0 21.7026V42.3803H3.53971H7.07942V35.2251V28.0699H10.7996C14.8945 28.0699 16.4909 27.877 18.2954 27.1695C21.2105 26.0439 23.1261 24.0984 24.4865 20.9147C25.2916 19.0335 25.5414 17.7954 25.6386 15.4478C25.8052 11.2351 24.7918 7.84246 22.5431 5.09294C21.0162 3.21169 19.3226 2.1344 16.8657 1.49123C15.7135 1.18573 15.0472 1.15357 7.81512 1.10534L0 1.04102V21.7026ZM14.0617 8.77504C15.8662 9.08054 17.1711 10.1578 17.9345 11.9587C18.351 12.9395 18.3926 13.1485 18.3926 14.5635C18.3787 16.5412 18.0456 17.6024 17.0322 18.7923C15.658 20.4163 14.7418 20.6735 10.3415 20.6735H7.07942V14.6439V8.61425H10.1055C11.7574 8.61425 13.5342 8.69465 14.0617 8.77504Z" fill="#5E5E5E"/>
<path d="M228.205 21.7108V42.3804H231.594H234.982L235.009 30.7024L235.05 19.0245L240.078 27.598L245.107 36.1875L246.326 36.2358L247.533 36.284L252.398 27.9519C255.082 23.3836 257.386 19.491 257.508 19.314C257.725 18.9923 257.738 19.6036 257.752 30.6703V42.3804H261.208H264.664V21.7108V1.04113H262.319H259.961L253.686 11.9309C250.216 17.9307 247.167 23.2067 246.896 23.6732L246.408 24.5096L239.577 12.7834L232.746 1.05721L230.482 1.04113H228.205V21.7108Z" fill="#5E5E5E"/>
<path d="M275.592 10.5029L271.416 13.3433V27.87V42.3804H275.708H280V25.0133C280 15.4534 279.95 7.6463 279.884 7.6463C279.802 7.66253 277.87 8.94477 275.592 10.5029Z" fill="#5E5E5E"/>
<path d="M106.056 11.0316V1.35159H106.463H114.506V5.25697L106.056 11.0316Z" fill="url(#paint0_linear_33_9)"/>
<path d="M271.551 11.0316V1.35159H271.958H280V5.25697L271.551 11.0316Z" fill="url(#paint1_linear_33_9)"/>
<ellipse cx="54.9835" cy="32.147" rx="9.63973" ry="10.8408" fill="#FFCC00"/>
<ellipse cx="56.7813" cy="16.9995" rx="9.63973" ry="10.8408" fill="#FF9900"/>
<ellipse cx="39.6397" cy="16.334" rx="9.63973" ry="10.8408" fill="#83ABD8"/>
<ellipse cx="48.3487" cy="10.8408" rx="9.63973" ry="10.8408" fill="#FF6600"/>
<ellipse cx="9.66067" cy="10.8246" rx="9.66067" ry="10.8246" transform="matrix(0.992998 -0.118129 0.081769 0.996651 30.1387 22.4233)" fill="#99CC33"/>
<path d="M48.334 15.6899C51.6085 15.6901 54.7909 18.9314 54.791 23.6362C54.791 28.3413 51.6086 31.5833 48.334 31.5835C45.0593 31.5835 41.876 28.3414 41.876 23.6362C41.8761 18.9312 45.0594 15.6899 48.334 15.6899Z" fill="#F3F3F3" stroke="#565656" stroke-width="4"/>
<path d="M80.9229 34.4983H99.2491V42.3801H73.5928V27.2239H80.9229V34.4983ZM80.9229 1.04128V16.8401H73.5928V1.04128H80.9229Z" fill="#5E5E5E"/>
<path d="M114.488 42.3804H106.001V26.8716H114.488V42.3804ZM114.455 7.19094C114.466 7.18166 114.475 10.9582 114.481 16.4878H106.001V12.9019L110.211 10.0464C112.506 8.48999 114.419 7.19273 114.455 7.19094Z" fill="#5E5E5E"/>
<path d="M132.357 26.8721C131.984 27.3553 131.208 28.4124 130.351 29.6094L128.238 32.5938V42.836H121.24V26.8721H132.357ZM144.265 31.7071C147.763 37.4148 150.726 42.2521 150.838 42.4649L151.044 42.836H142.413L137.556 34.6905C135.337 30.9538 133.412 27.8011 132.793 26.8721H141.311C142.209 28.342 143.215 29.9885 144.265 31.7071ZM128.238 1.38284L128.265 11.1739L128.288 16.4883H121.24V1.38284H128.238ZM147.243 5.68948C145.61 8.07656 142.701 12.3185 140.78 15.125L139.844 16.4883H131.344L134.962 11.1739L141.617 1.39944H145.912L150.207 1.38284L147.243 5.68948Z" fill="#5E5E5E"/>
<path d="M175.271 26.8718C175.579 27.5095 177.265 30.8062 179.288 34.7176C181.528 39.0474 183.354 42.6079 183.355 42.658C183.355 42.6901 181.568 42.7224 179.394 42.7224H175.42L171.806 35.2146L168.192 27.7234H164.085L164.045 35.2146L164.018 42.7224H157.217V26.8718H175.271ZM164.191 1.49685C168.019 1.49685 171.686 1.5768 172.353 1.65701C176.447 2.21853 179.354 4.56123 181.008 8.63552C181.821 10.6244 181.955 11.5065 181.941 14.6502C181.941 15.4511 181.938 16.0326 181.925 16.4881H174.854C175.143 15.3871 175.148 14.1401 174.834 12.8855C174.58 11.9073 174.42 11.5864 173.78 10.8006C173.233 10.1429 172.793 9.77442 172.219 9.50173C171.473 9.16487 171.192 9.13231 167.792 9.06814C164.82 9.02005 164.139 9.05212 164.085 9.22829C164.045 9.34058 164.031 11.8917 164.045 14.8914L164.056 16.4881H157.217V1.49685H164.191Z" fill="#5E5E5E"/>
<path d="M221.454 42.3811L217.849 42.3489L214.257 42.3001L213.064 38.1184C212.415 35.8207 211.833 33.8114 211.779 33.6468C211.686 33.3894 211.275 33.3724 205.761 33.4046L199.836 33.4534L198.537 37.8606C197.822 40.2734 197.211 42.2845 197.185 42.3167C197.152 42.3646 195.55 42.3649 193.619 42.3489L190.107 42.3001L194.956 26.8714H216.641L221.454 42.3811ZM205.867 1.07351L208.663 1.12136L209.764 4.66042C210.168 5.98001 211.623 10.6705 213.425 16.4876H207.059C206.371 14.1265 205.87 12.4622 205.84 12.4622C205.811 12.4633 205.27 14.2318 204.597 16.4876H198.223C200.816 8.25567 202.774 2.03191 202.871 1.71706L203.083 1.04128L205.867 1.07351Z" fill="#5E5E5E"/>
<rect x="74" y="22" width="30" height="1" fill="#659E36"/>
<rect x="185" y="21" width="30" height="1" fill="#FF9900"/>
<path d="M174 19.078C175.038 19.0518 175.038 19.0518 176.097 19.0251C176.42 19.0136 176.42 19.0136 176.749 19.0018C177.781 18.9892 178.268 19.0322 179.171 19.4655C179.88 20.0498 179.979 20.3963 180 21.193C179.714 22.0065 179.562 22.1949 178.636 22.6735C179.032 23.4753 179.496 24.2359 180 25C179.28 25 178.56 25 177.818 25C177.726 24.865 177.634 24.7301 177.539 24.591C177.417 24.4163 177.296 24.2415 177.17 24.0615C177.05 23.8873 176.93 23.713 176.806 23.5335C176.5 23.068 176.5 23.068 175.909 22.885C175.909 23.583 175.909 24.2809 175.909 25C175.279 25 174.649 25 174 25C174 23.0457 174 21.0915 174 19.078ZM175.909 20.1355C175.909 20.6241 175.909 21.1126 175.909 21.616C176.539 21.616 177.169 21.616 177.818 21.616C178.004 21.109 178.004 21.109 178.091 20.5585C177.573 20.0615 177.573 20.0615 176.693 20.1091C176.434 20.1178 176.176 20.1265 175.909 20.1355Z" fill="#5D5D5D"/>
<path d="M159 19C160.98 19 162.96 19 165 19C165 19.3536 165 19.7071 165 20.0714C163.719 20.0714 162.438 20.0714 161.118 20.0714C161.118 20.4957 161.118 20.92 161.118 21.3571C162.282 21.3571 163.447 21.3571 164.647 21.3571C164.647 21.7107 164.647 22.0643 164.647 22.4286C163.482 22.4286 162.318 22.4286 161.118 22.4286C161.118 22.9236 161.118 23.4186 161.118 23.9286C162.399 23.9286 163.68 23.9286 165 23.9286C165 24.2821 165 24.6357 165 25C163.02 25 161.04 25 159 25C159 23.02 159 21.04 159 19Z" fill="#5D5D5D"/>
<path d="M143 19C143.495 19 143.99 19 144.5 19C144.67 19.4005 144.84 19.8013 145.009 20.2022C145.103 20.4254 145.198 20.6485 145.295 20.8785C145.557 21.5282 145.785 22.1807 146 22.8471C146.588 21.5879 147.085 20.3261 147.5 19C147.995 19 148.49 19 149 19C148.864 19.7636 148.663 20.4655 148.397 21.194C148.322 21.4018 148.246 21.6095 148.168 21.8235C148.089 22.0379 148.01 22.2522 147.929 22.4731C147.81 22.7995 147.81 22.7995 147.689 23.1326C147.099 24.7427 147.099 24.7427 146.857 24.9843C146.285 25.0145 145.716 24.9934 145.143 24.9843C144.837 24.1666 144.532 23.3487 144.227 22.5306C144.124 22.2521 144.02 21.9737 143.916 21.6953C143.766 21.296 143.618 20.8965 143.469 20.4969C143.379 20.2563 143.289 20.0156 143.197 19.7677C143 19.2137 143 19.2137 143 19Z" fill="#5E5E5E"/>
<path d="M130.307 19.1968C131.086 19.6149 131.592 20.1844 131.925 20.9937C132.068 21.9906 132.036 22.7739 131.571 23.6765C130.748 24.6021 130.199 24.901 128.955 25C127.998 24.9729 127.309 24.5848 126.592 23.9885C125.964 23.226 125.994 22.4354 126.003 21.4944C126.11 20.5709 126.602 20.0284 127.287 19.4339C128.265 18.8419 129.226 18.9527 130.307 19.1968ZM127.476 20.9937C127.244 21.7822 127.187 22.1975 127.527 22.9528C127.878 23.4315 127.878 23.4315 128.487 23.7888C129.428 23.7491 129.428 23.7491 130.244 23.3342C130.667 22.7861 130.617 22.3071 130.594 21.6387C130.455 20.9088 130.102 20.6059 129.498 20.1951C128.583 19.9918 128.094 20.3334 127.476 20.9937Z" fill="#5D5D5D"/>
<path d="M113.913 19.4319C114.412 19.8004 114.747 20.1221 114.973 20.6836C114.982 20.7947 114.991 20.9059 115 21.0204C113.846 21.0738 113.846 21.0738 113.3 21.0204C113.088 20.8208 112.875 20.6212 112.663 20.4215C111.903 20.4214 111.903 20.4214 111.176 20.6212C110.653 21.3578 110.606 21.9621 110.751 22.8172C111.043 23.3584 111.043 23.3584 111.601 23.6158C112.675 23.5872 112.675 23.5872 113.513 23.0168C114.283 22.9919 114.283 22.9919 115 23.0168C114.712 23.9036 114.364 24.3371 113.513 24.8136C112.524 25.07 111.777 25.0621 110.791 24.7886C109.954 24.3262 109.483 23.8282 109.051 23.0168C108.926 21.8822 108.993 20.9909 109.689 20.0223C110.873 18.9667 112.425 18.6575 113.913 19.4319Z" fill="#5D5D5D"/>
<defs>
<linearGradient id="paint0_linear_33_9" x1="110.281" y1="1.35159" x2="110.281" y2="11.0316" gradientUnits="userSpaceOnUse">
<stop stop-color="#DC3597"/>
<stop offset="1" stop-color="#1B5664"/>
</linearGradient>
<linearGradient id="paint1_linear_33_9" x1="275.775" y1="1.35159" x2="275.775" y2="11.0316" gradientUnits="userSpaceOnUse">
<stop stop-color="#36ADCA"/>
<stop offset="1" stop-color="#1B5664"/>
</linearGradient>
</defs>
</svg>
