<svg width="280" height="50" viewBox="0 0 280 50" fill="none" xmlns="http://www.w3.org/2000/svg">
<path d="M0 21.8797V39.7377H3.53971H7.07942V33.5582V27.3787H10.7996C14.8945 27.3787 16.4909 27.2121 18.2954 26.6011C21.2105 25.629 23.1261 23.9488 24.4865 21.1992C25.2916 19.5745 25.5414 18.5053 25.6386 16.4778C25.8052 12.8396 24.7918 9.90955 22.5431 7.53496C21.0162 5.91025 19.3226 4.97985 16.8657 4.4244C15.7135 4.16055 15.0472 4.13278 7.81512 4.09112L0 4.03557V21.8797ZM14.0617 10.715C15.8662 10.9788 17.1711 11.9092 17.9345 13.4645C18.351 14.3116 18.3926 14.4921 18.3926 15.7141C18.3787 17.4221 18.0456 18.3386 17.0322 19.3662C15.658 20.7688 14.7418 20.9909 10.3415 20.9909H7.07942V15.7835V10.5761H10.1055C11.7574 10.5761 13.5342 10.6455 14.0617 10.715Z" fill="#5E5E5E"/>
<path d="M228.205 21.8867V39.7378H231.594H234.982L235.009 29.6523L235.05 19.5668L240.078 26.9712L245.106 34.3894L246.326 34.4311L247.533 34.4728L252.398 27.2768C255.082 23.3315 257.386 19.9697 257.508 19.8169C257.725 19.539 257.738 20.0669 257.752 29.6245V39.7378H261.208H264.664V21.8867V4.0357H262.319H259.961L253.686 13.4405C250.216 18.6222 247.167 23.1787 246.896 23.5816L246.408 24.3039L239.577 14.1768L232.746 4.04959L230.482 4.0357H228.205V21.8867Z" fill="#5E5E5E"/>
<path d="M275.592 12.2073L271.416 14.6603V27.2061V39.7378H275.708H280V24.739C280 16.4826 279.95 9.74017 279.884 9.74017C279.802 9.75419 277.87 10.8616 275.592 12.2073Z" fill="#5E5E5E"/>
<path d="M106.056 12.6638V4.30383H106.463H114.506V7.67666L106.056 12.6638Z" fill="url(#paint0_linear_1160_253)"/>
<path d="M271.551 12.6638V4.30383H271.958H280V7.67666L271.551 12.6638Z" fill="url(#paint1_linear_1160_253)"/>
<g filter="url(#filter0_d_1160_253)">
<g filter="url(#filter1_d_1160_253)">
<ellipse cx="54.1192" cy="31.7633" rx="9.63973" ry="9.36255" fill="#FFCC00"/>
</g>
<g filter="url(#filter2_d_1160_253)">
<ellipse cx="55.9162" cy="18.6814" rx="9.63973" ry="9.36255" fill="#FF9900"/>
</g>
<g filter="url(#filter3_d_1160_253)">
<ellipse cx="38.7753" cy="18.1067" rx="9.63973" ry="9.36255" fill="#CCEE66"/>
</g>
<g filter="url(#filter4_d_1160_253)">
<ellipse cx="47.4841" cy="13.3625" rx="9.63973" ry="9.36255" fill="#FF6600"/>
</g>
<g filter="url(#filter5_d_1160_253)">
<ellipse cx="9.64352" cy="9.35914" rx="9.64352" ry="9.35914" transform="matrix(0.994764 -0.102202 0.0945722 0.995518 29.2739 23.3656)" fill="#99CC33"/>
</g>
<path d="M47.4697 17.8231C51.0067 17.8233 53.9265 20.7441 53.9268 24.413C53.9268 28.082 51.0069 31.0036 47.4697 31.0038C43.9324 31.0038 41.0117 28.0821 41.0117 24.413C41.0119 20.744 43.9326 17.8231 47.4697 17.8231Z" fill="#F3F3F3" stroke="#565656" stroke-width="4"/>
</g>
<path d="M80.9229 32.9304H99.2491V39.738H73.5928V26.6482H80.9229V32.9304ZM80.9229 4.03589V17.6804H73.5928V4.03589H80.9229Z" fill="#5E5E5E"/>
<path d="M114.488 39.7375H106.001V26.344H114.488V39.7375ZM114.455 9.34692C114.466 9.33724 114.475 12.5994 114.481 17.3762H106.001V14.2795L110.211 11.8127C112.506 10.4686 114.419 9.34853 114.455 9.34692Z" fill="#5E5E5E"/>
<path d="M132.357 26.3445C131.984 26.7618 131.208 27.6749 130.351 28.7087L128.238 31.2859V40.1316H121.24V26.3445H132.357ZM144.265 30.5193C147.765 35.4506 150.728 39.6302 150.838 39.8113L151.044 40.1316H142.413L137.556 33.0964C135.337 29.8697 133.413 27.1472 132.794 26.3445H141.311C142.209 27.6139 143.215 29.0351 144.265 30.5193ZM128.238 4.33081L128.265 12.7869L128.288 17.3757H121.24V4.33081H128.238ZM147.243 8.05054C145.61 10.1121 142.701 13.7752 140.78 16.199L139.844 17.3757H131.344L134.962 12.7869L141.617 4.34448H145.912L150.207 4.33081L147.243 8.05054Z" fill="#5E5E5E"/>
<path d="M175.271 26.3444C175.58 26.8959 177.265 29.7425 179.288 33.1198C181.522 36.8505 183.346 39.92 183.355 39.9772C183.355 40.0049 181.568 40.0328 179.394 40.0328H175.42L171.806 33.5494L168.192 27.0797H164.085L164.045 33.5494L164.018 40.0328H157.217V26.3444H175.271ZM164.191 4.42932C168.019 4.42932 171.686 4.49873 172.353 4.56799C176.447 5.05296 179.354 7.07567 181.008 10.5944C181.821 12.3122 181.954 13.0744 181.941 15.7897C181.941 16.4808 181.938 16.9824 181.925 17.3756H174.855C175.144 16.425 175.148 15.3484 174.834 14.2653C174.58 13.4203 174.42 13.1432 173.78 12.4645C173.233 11.8965 172.793 11.5779 172.219 11.3424C171.473 11.0515 171.192 11.0238 167.792 10.9684C164.818 10.9268 164.138 10.9547 164.085 11.1071C164.045 11.2075 164.031 13.4084 164.045 15.9967L164.056 17.3756H157.217V4.42932H164.191Z" fill="#5E5E5E"/>
<path d="M221.454 39.738L217.849 39.7107L214.257 39.6687L213.064 36.0564C212.415 34.072 211.833 32.337 211.779 32.1951C211.686 31.9728 211.275 31.9583 205.761 31.9861L199.836 32.0281L198.537 35.8347C197.822 37.9184 197.211 39.6546 197.185 39.6824C197.158 39.724 195.555 39.7246 193.619 39.7107L190.107 39.6687L194.956 26.3445H216.641L221.454 39.738ZM205.867 4.06421L208.663 4.10522L209.764 7.16187C210.169 8.30203 211.623 12.3524 213.425 17.3757H207.059C206.371 15.3366 205.87 13.8992 205.84 13.8992C205.811 13.9 205.27 15.4275 204.597 17.3757H198.223C200.815 10.2692 202.773 4.89584 202.871 4.61987L203.083 4.03589L205.867 4.06421Z" fill="#5E5E5E"/>
<rect x="73.5692" y="21.7841" width="30.8845" height="0.76" fill="#659E36"/>
<rect x="184.87" y="21.48" width="30.8845" height="0.76" fill="#FF9900"/>
<path d="M110.28 22.2C110.28 21.6507 110.403 21.16 110.648 20.728C110.899 20.2907 111.237 19.952 111.664 19.712C112.096 19.4667 112.579 19.344 113.112 19.344C113.736 19.344 114.283 19.504 114.752 19.824C115.221 20.144 115.549 20.5867 115.736 21.152H114.448C114.32 20.8853 114.139 20.6853 113.904 20.552C113.675 20.4187 113.408 20.352 113.104 20.352C112.779 20.352 112.488 20.4293 112.232 20.584C111.981 20.7333 111.784 20.9467 111.64 21.224C111.501 21.5013 111.432 21.8267 111.432 22.2C111.432 22.568 111.501 22.8933 111.64 23.176C111.784 23.4533 111.981 23.6693 112.232 23.824C112.488 23.9733 112.779 24.048 113.104 24.048C113.408 24.048 113.675 23.9813 113.904 23.848C114.139 23.7093 114.32 23.5067 114.448 23.24H115.736C115.549 23.8107 115.221 24.256 114.752 24.576C114.288 24.8907 113.741 25.048 113.112 25.048C112.579 25.048 112.096 24.928 111.664 24.688C111.237 24.4427 110.899 24.104 110.648 23.672C110.403 23.24 110.28 22.7493 110.28 22.2ZM128.885 25.056C128.362 25.056 127.882 24.9333 127.445 24.688C127.007 24.4427 126.661 24.104 126.405 23.672C126.149 23.2347 126.021 22.7413 126.021 22.192C126.021 21.648 126.149 21.16 126.405 20.728C126.661 20.2907 127.007 19.9493 127.445 19.704C127.882 19.4587 128.362 19.336 128.885 19.336C129.413 19.336 129.893 19.4587 130.325 19.704C130.762 19.9493 131.106 20.2907 131.357 20.728C131.613 21.16 131.741 21.648 131.741 22.192C131.741 22.7413 131.613 23.2347 131.357 23.672C131.106 24.104 130.762 24.4427 130.325 24.688C129.887 24.9333 129.407 25.056 128.885 25.056ZM128.885 24.056C129.221 24.056 129.517 23.9813 129.773 23.832C130.029 23.6773 130.229 23.4587 130.373 23.176C130.517 22.8933 130.589 22.5653 130.589 22.192C130.589 21.8187 130.517 21.4933 130.373 21.216C130.229 20.9333 130.029 20.7173 129.773 20.568C129.517 20.4187 129.221 20.344 128.885 20.344C128.549 20.344 128.25 20.4187 127.989 20.568C127.733 20.7173 127.533 20.9333 127.389 21.216C127.245 21.4933 127.173 21.8187 127.173 22.192C127.173 22.5653 127.245 22.8933 127.389 23.176C127.533 23.4587 127.733 23.6773 127.989 23.832C128.25 23.9813 128.549 24.056 128.885 24.056ZM147.19 19.416L145.142 25H143.782L141.734 19.416H142.934L144.47 23.856L145.998 19.416H147.19ZM158.581 20.32V21.72H160.461V22.608H158.581V24.088H160.701V25H157.461V19.408H160.701V20.32H158.581ZM174.199 25L172.967 22.824H172.439V25H171.319V19.416H173.415C173.847 19.416 174.215 19.4933 174.519 19.648C174.823 19.7973 175.05 20.0027 175.199 20.264C175.354 20.52 175.431 20.808 175.431 21.128C175.431 21.496 175.325 21.8293 175.111 22.128C174.898 22.4213 174.581 22.624 174.159 22.736L175.495 25H174.199ZM172.439 21.984H173.375C173.679 21.984 173.906 21.912 174.055 21.768C174.205 21.6187 174.279 21.4133 174.279 21.152C174.279 20.896 174.205 20.6987 174.055 20.56C173.906 20.416 173.679 20.344 173.375 20.344H172.439V21.984Z" fill="#5E5E5E"/>
<defs>
<filter id="filter0_d_1160_253" x="25.1356" y="4" width="44.4203" height="45.1259" filterUnits="userSpaceOnUse" color-interpolation-filters="sRGB">
<feFlood flood-opacity="0" result="BackgroundImageFix"/>
<feColorMatrix in="SourceAlpha" type="matrix" values="0 0 0 0 0 0 0 0 0 0 0 0 0 0 0 0 0 0 127 0" result="hardAlpha"/>
<feOffset dy="4"/>
<feGaussianBlur stdDeviation="2"/>
<feComposite in2="hardAlpha" operator="out"/>
<feColorMatrix type="matrix" values="0 0 0 0 0 0 0 0 0 0 0 0 0 0 0 0 0 0 0.25 0"/>
<feBlend mode="normal" in2="BackgroundImageFix" result="effect1_dropShadow_1160_253"/>
<feBlend mode="normal" in="SourceGraphic" in2="effect1_dropShadow_1160_253" result="shape"/>
</filter>
<filter id="filter1_d_1160_253" x="40.4795" y="20.4008" width="27.2794" height="26.7251" filterUnits="userSpaceOnUse" color-interpolation-filters="sRGB">
<feFlood flood-opacity="0" result="BackgroundImageFix"/>
<feColorMatrix in="SourceAlpha" type="matrix" values="0 0 0 0 0 0 0 0 0 0 0 0 0 0 0 0 0 0 127 0" result="hardAlpha"/>
<feOffset dy="2"/>
<feGaussianBlur stdDeviation="2"/>
<feComposite in2="hardAlpha" operator="out"/>
<feColorMatrix type="matrix" values="0 0 0 0 0 0 0 0 0 0 0 0 0 0 0 0 0 0 0.25 0"/>
<feBlend mode="normal" in2="BackgroundImageFix" result="effect1_dropShadow_1160_253"/>
<feBlend mode="normal" in="SourceGraphic" in2="effect1_dropShadow_1160_253" result="shape"/>
</filter>
<filter id="filter2_d_1160_253" x="42.2765" y="7.31885" width="27.2794" height="26.7251" filterUnits="userSpaceOnUse" color-interpolation-filters="sRGB">
<feFlood flood-opacity="0" result="BackgroundImageFix"/>
<feColorMatrix in="SourceAlpha" type="matrix" values="0 0 0 0 0 0 0 0 0 0 0 0 0 0 0 0 0 0 127 0" result="hardAlpha"/>
<feOffset dy="2"/>
<feGaussianBlur stdDeviation="2"/>
<feComposite in2="hardAlpha" operator="out"/>
<feColorMatrix type="matrix" values="0 0 0 0 0 0 0 0 0 0 0 0 0 0 0 0 0 0 0.25 0"/>
<feBlend mode="normal" in2="BackgroundImageFix" result="effect1_dropShadow_1160_253"/>
<feBlend mode="normal" in="SourceGraphic" in2="effect1_dropShadow_1160_253" result="shape"/>
</filter>
<filter id="filter3_d_1160_253" x="25.1356" y="6.74414" width="27.2794" height="26.7251" filterUnits="userSpaceOnUse" color-interpolation-filters="sRGB">
<feFlood flood-opacity="0" result="BackgroundImageFix"/>
<feColorMatrix in="SourceAlpha" type="matrix" values="0 0 0 0 0 0 0 0 0 0 0 0 0 0 0 0 0 0 127 0" result="hardAlpha"/>
<feOffset dy="2"/>
<feGaussianBlur stdDeviation="2"/>
<feComposite in2="hardAlpha" operator="out"/>
<feColorMatrix type="matrix" values="0 0 0 0 0 0 0 0 0 0 0 0 0 0 0 0 0 0 0.25 0"/>
<feBlend mode="normal" in2="BackgroundImageFix" result="effect1_dropShadow_1160_253"/>
<feBlend mode="normal" in="SourceGraphic" in2="effect1_dropShadow_1160_253" result="shape"/>
</filter>
<filter id="filter4_d_1160_253" x="33.8444" y="0" width="27.2794" height="26.7251" filterUnits="userSpaceOnUse" color-interpolation-filters="sRGB">
<feFlood flood-opacity="0" result="BackgroundImageFix"/>
<feColorMatrix in="SourceAlpha" type="matrix" values="0 0 0 0 0 0 0 0 0 0 0 0 0 0 0 0 0 0 127 0" result="hardAlpha"/>
<feOffset/>
<feGaussianBlur stdDeviation="2"/>
<feComposite in2="hardAlpha" operator="out"/>
<feColorMatrix type="matrix" values="0 0 0 0 0 0 0 0 0 0 0 0 0 0 0 0 0 0 0.25 0"/>
<feBlend mode="normal" in2="BackgroundImageFix" result="effect1_dropShadow_1160_253"/>
<feBlend mode="normal" in="SourceGraphic" in2="effect1_dropShadow_1160_253" result="shape"/>
</filter>
<filter id="filter5_d_1160_253" x="26.1176" y="20.3273" width="27.2688" height="26.7399" filterUnits="userSpaceOnUse" color-interpolation-filters="sRGB">
<feFlood flood-opacity="0" result="BackgroundImageFix"/>
<feColorMatrix in="SourceAlpha" type="matrix" values="0 0 0 0 0 0 0 0 0 0 0 0 0 0 0 0 0 0 127 0" result="hardAlpha"/>
<feOffset dy="2"/>
<feGaussianBlur stdDeviation="2"/>
<feComposite in2="hardAlpha" operator="out"/>
<feColorMatrix type="matrix" values="0 0 0 0 0 0 0 0 0 0 0 0 0 0 0 0 0 0 0.25 0"/>
<feBlend mode="normal" in2="BackgroundImageFix" result="effect1_dropShadow_1160_253"/>
<feBlend mode="normal" in="SourceGraphic" in2="effect1_dropShadow_1160_253" result="shape"/>
</filter>
<linearGradient id="paint0_linear_1160_253" x1="110.281" y1="4.30383" x2="110.281" y2="12.6638" gradientUnits="userSpaceOnUse">
<stop stop-color="#DC3597"/>
<stop offset="1" stop-color="#1B5664"/>
</linearGradient>
<linearGradient id="paint1_linear_1160_253" x1="275.775" y1="4.30383" x2="275.775" y2="12.6638" gradientUnits="userSpaceOnUse">
<stop stop-color="#36ADCA"/>
<stop offset="1" stop-color="#1B5664"/>
</linearGradient>
</defs>
</svg>
