<svg width="22" height="22" viewBox="0 0 22 22" fill="none" xmlns="http://www.w3.org/2000/svg">
<path d="M21.3715 7.33333C19.8621 3.06387 15.7938 0.00366667 11.0083 0H10.9917C6.2062 0.00366667 2.13767 3.06387 0.628467 7.33333C0.222689 8.48051 0 9.71398 0 11C0 12.286 0.222933 13.5197 0.628467 14.6667C2.13889 18.9386 6.21084 22 11 22C15.7892 22 19.8611 18.9386 21.3715 14.6667C21.7771 13.5195 22 12.286 22 11C22 9.71398 21.7773 8.48051 21.3715 7.33333Z" fill="#F31930"/>
<path d="M10.2916 15.2362C7.91093 15.2362 5.98104 13.3393 5.98104 10.9993C5.98104 8.65919 7.91093 6.7623 10.2916 6.7623C11.5727 6.7623 12.7199 7.31475 13.5094 8.18692C12.5564 6.69532 10.8687 5.70312 8.94444 5.70312C5.96857 5.70312 3.5564 8.07424 3.5564 10.9995C3.5564 13.9248 5.96857 16.2959 8.94444 16.2959C10.8694 16.2959 12.5576 15.3029 13.5104 13.8104C12.7211 14.6833 11.5734 15.2362 10.2916 15.2362Z" fill="#F3F4F5"/>
<path d="M15.382 8.52734L15.3385 10.4851L13.512 10.9811L15.3125 11.6223L15.269 13.4177L16.4433 12.0156L18.2178 12.6311L17.1913 11.1265L18.4439 9.63028L16.5216 10.1602L15.382 8.52734Z" fill="#F3F4F5"/>
</svg>
