<svg width="15" height="15" viewBox="0 0 15 15" fill="none" xmlns="http://www.w3.org/2000/svg">
<g clip-path="url(#clip0_1686_506)">
<path fill-rule="evenodd" clip-rule="evenodd" d="M14.7115 7.5006C14.7115 11.4834 11.4828 14.7121 7.49999 14.7121C3.51717 14.7121 0.288452 11.4834 0.288452 7.5006C0.288452 3.51778 3.51717 0.289062 7.49999 0.289062C11.4828 0.289062 14.7115 3.51778 14.7115 7.5006ZM9.66345 5.33714C9.66345 6.53202 8.69487 7.5006 7.49999 7.5006C6.30511 7.5006 5.33653 6.53202 5.33653 5.33714C5.33653 4.1423 6.30511 3.17368 7.49999 3.17368C8.69487 3.17368 9.66345 4.1423 9.66345 5.33714ZM7.49999 13.6304C8.78653 13.6304 9.98054 13.2341 10.9665 12.5568C11.402 12.2576 11.5881 11.6878 11.3349 11.2241C10.8101 10.2628 9.7285 9.66406 7.49992 9.66406C5.2714 9.66406 4.18987 10.2628 3.665 11.2241C3.41181 11.6878 3.5979 12.2575 4.03337 12.5567C5.01935 13.234 6.21338 13.6304 7.49999 13.6304Z" fill="white"/>
</g>
<defs>
<clipPath id="clip0_1686_506">
<rect width="15" height="15" fill="white"/>
</clipPath>
</defs>
</svg>
