<svg width="32" height="32" viewBox="0 0 32 32" fill="none" xmlns="http://www.w3.org/2000/svg">
<g clip-path="url(#clip0_1708_73)">
<path d="M0.9375 16.1445C0.9375 18.1328 1.32912 20.1017 2.09001 21.9386C2.8509 23.7755 3.96615 25.4446 5.37209 26.8506C6.77802 28.2565 8.44711 29.3718 10.2841 30.1326C12.121 30.8935 14.0898 31.2852 16.0781 31.2852C18.0664 31.2852 20.0352 30.8935 21.8722 30.1326C23.7091 29.3718 25.3782 28.2565 26.7842 26.8506C28.1901 25.4446 29.3054 23.7755 30.0662 21.9386C30.8271 20.1017 31.2188 18.1328 31.2188 16.1445C31.2188 14.1562 30.8271 12.1874 30.0662 10.3505C29.3054 8.51352 28.1901 6.84443 26.7842 5.43849C25.3782 4.03256 23.7091 2.91731 21.8722 2.15642C20.0352 1.39553 18.0664 1.00391 16.0781 1.00391C14.0898 1.00391 12.121 1.39553 10.2841 2.15642C8.44711 2.91731 6.77802 4.03256 5.37209 5.43849C3.96615 6.84443 2.8509 8.51352 2.09001 10.3505C1.32912 12.1874 0.9375 14.1562 0.9375 16.1445Z" fill="#FF9900"/>
<path d="M16.0781 31.5922C13.9937 31.5922 11.9687 31.1828 10.0625 30.3766C8.22183 29.5984 6.5687 28.4828 5.14995 27.0641C3.7312 25.6453 2.61558 23.9922 1.83745 22.1516C1.0312 20.2453 0.621826 18.2234 0.621826 16.1359C0.621826 14.0484 1.0312 12.0266 1.83745 10.1203C2.61558 8.27969 3.7312 6.62656 5.14995 5.20781C6.5687 3.78906 8.22183 2.67344 10.0625 1.89531C11.9687 1.08906 13.9906 0.679688 16.0781 0.679688C18.1656 0.679688 20.1875 1.09844 22.0937 1.90469C23.9343 2.68281 25.5875 3.79844 27.0062 5.21719C28.425 6.63594 29.5406 8.28906 30.3187 10.1297C31.125 12.0359 31.5343 14.0578 31.5343 16.1453C31.5343 18.2328 31.125 20.2547 30.3187 22.1609C29.5406 24.0016 28.425 25.6547 27.0062 27.0734C25.5875 28.4922 23.9343 29.6078 22.0937 30.3859C20.1875 31.1859 18.1656 31.5922 16.0781 31.5922ZM16.0781 1.31406C14.075 1.31406 12.1343 1.70469 10.3062 2.47969C8.54058 3.22656 6.9562 4.29531 5.5937 5.65781C4.2312 7.02031 3.16245 8.60469 2.41558 10.3703C1.6437 12.1984 1.24995 14.1391 1.24995 16.1422C1.24995 18.1453 1.64058 20.0859 2.41558 21.9141C3.16245 23.6797 4.2312 25.2641 5.5937 26.6266C6.9562 27.9891 8.54058 29.0578 10.3062 29.8047C12.1343 30.5766 14.075 30.9703 16.0781 30.9703C18.0812 30.9703 20.0218 30.5797 21.85 29.8047C23.6156 29.0578 25.2 27.9891 26.5625 26.6266C27.9249 25.2641 28.9937 23.6797 29.7406 21.9141C30.5125 20.0859 30.9062 18.1453 30.9062 16.1422C30.9062 14.1391 30.5156 12.1984 29.7406 10.3703C28.9937 8.60469 27.9249 7.02031 26.5625 5.65781C25.2 4.29531 23.6156 3.22656 21.85 2.47969C20.0218 1.70781 18.0812 1.31406 16.0781 1.31406Z" fill="black"/>
<path d="M16.5 1.02344C14.6406 3.22656 12.9563 6.12656 16.9719 6.12656C23.4531 6.12656 21.7656 10.9016 14.5094 11.2422C7.25002 11.5828 9.2969 16.7016 13.3906 17.2109C15.9094 17.5266 16.8094 18.8078 17.1344 20.0266V20.0734C17.1344 20.7422 17.2 21.3797 17.3156 21.9703V21.9828C17.3156 22.0578 17.3313 22.1266 17.3594 22.1859C17.8031 24.2016 18.8563 24.5984 20.0875 24.5984C21.7188 24.5984 22.8125 21.1953 23.0094 19.3234C23.3125 16.4859 26.1938 16.5047 26.0125 12.9422C25.9594 11.9141 28.6469 11.8766 30.6438 12.0359C28.8906 5.80469 23.25 1.20781 16.5 1.02344Z" fill="#659E36"/>
<path d="M20.0843 24.9181C18.9468 24.9181 17.5781 24.6181 17.0562 22.29C17.0218 22.2025 17.0031 22.1056 17 22.0056C16.8812 21.3744 16.8187 20.7275 16.8187 20.0775V20.0681C16.4125 18.5994 15.275 17.765 13.35 17.5244C12.2593 17.3869 11.2437 16.9338 10.4937 16.2463C9.74997 15.565 9.34372 14.715 9.37497 13.9119C9.39684 13.3494 9.63747 12.5431 10.6687 11.8931C11.5562 11.3338 12.8437 11.0119 14.4937 10.9338C16.8843 10.8213 18.3687 10.2494 19.1937 9.78689C20.15 9.25251 20.7125 8.58064 20.6968 7.99314C20.6812 7.27751 19.6937 6.44314 16.9718 6.44314C15.5531 6.44314 14.6687 6.08064 14.3375 5.36814C14.0781 4.80876 14.1812 4.05876 14.6468 3.14314C14.9906 2.46814 15.5343 1.68689 16.2625 0.824387C16.325 0.752512 16.4156 0.711887 16.5093 0.715012C18.1968 0.761887 19.85 1.07751 21.4218 1.65564C22.9437 2.21501 24.3625 3.01189 25.6406 4.02126C26.9062 5.02126 28.0031 6.20564 28.9031 7.54314C29.8156 8.90251 30.5031 10.3869 30.9437 11.9588C30.9718 12.0556 30.95 12.1619 30.8843 12.2431C30.8187 12.3213 30.7187 12.365 30.6187 12.3556C28.4468 12.1806 26.8343 12.3306 26.4062 12.7463C26.3281 12.8213 26.3218 12.8838 26.3218 12.9338C26.4281 15.0275 25.5093 16.0025 24.6968 16.8619C24.0531 17.5463 23.4437 18.19 23.3187 19.3619C23.2031 20.4525 22.8281 21.7994 22.3656 22.7994C21.725 24.1869 20.9375 24.9181 20.0843 24.9181ZM16.6406 1.34001C15.1968 3.07439 14.5812 4.40876 14.9031 5.10251C15.1781 5.69001 16.1781 5.81501 16.9718 5.81501C18.3156 5.81501 19.3843 6.01189 20.1468 6.39939C20.8875 6.77751 21.3062 7.33689 21.3187 7.97751C21.3375 8.81501 20.675 9.67439 19.4968 10.3306C18.6125 10.8244 17.0343 11.4369 14.5218 11.5556C11.7406 11.6869 10.05 12.5744 9.99684 13.9338C9.97184 14.5525 10.3062 15.2275 10.9125 15.7838C11.5687 16.3869 12.4625 16.7838 13.425 16.9025C15.6187 17.1775 16.9687 18.2025 17.4312 19.9494C17.4375 19.9744 17.4406 20.0025 17.4406 20.0306V20.0775C17.4406 20.6963 17.5 21.315 17.6156 21.915C17.6187 21.9338 17.6218 21.9556 17.6218 21.9744V21.9869C17.6218 22.015 17.6281 22.04 17.6375 22.0619C17.6468 22.0806 17.6531 22.1025 17.6593 22.1244C18.0531 23.9213 18.9156 24.29 20.0843 24.29C20.8687 24.29 21.4968 23.19 21.8 22.5369C22.3281 21.3931 22.6156 20.0744 22.6968 19.2963C22.8437 17.915 23.5562 17.1619 24.2406 16.4338C25.0375 15.59 25.7906 14.79 25.6968 12.965C25.6843 12.715 25.7781 12.4838 25.9687 12.2994C26.3125 11.9681 26.975 11.7681 28 11.6931C28.7531 11.6369 29.5625 11.6619 30.2125 11.6994C29.7875 10.3494 29.175 9.07126 28.3812 7.89001C27.5187 6.60564 26.4656 5.46814 25.25 4.50876C24.025 3.54001 22.6625 2.77751 21.2 2.24001C19.7406 1.70251 18.2062 1.39939 16.6406 1.34001Z" fill="black"/>
</g>
<defs>
<clipPath id="clip0_1708_73">
<rect width="32" height="32" fill="white"/>
</clipPath>
</defs>
</svg>
